<svg width="83" height="83" viewBox="0 0 83 83" fill="none" xmlns="http://www.w3.org/2000/svg">
<path d="M70.2285 15.2357C64.9717 12.7951 59.2801 11.0237 53.3514 10.0002C53.2994 9.99853 53.2477 10.0082 53.1999 10.0286C53.1521 10.049 53.1093 10.0796 53.0747 10.1183C52.3632 11.4173 51.5332 13.11 50.9799 14.409C44.6914 13.4643 38.2963 13.4643 32.0079 14.409C31.4546 13.0706 30.6245 11.4173 29.8736 10.1183C29.834 10.0395 29.7155 10.0002 29.5969 10.0002C23.6682 11.0237 18.0161 12.7951 12.7198 15.2357C12.6802 15.2357 12.6407 15.275 12.6012 15.3144C1.85041 31.3358 -1.11395 46.9243 0.348468 62.3552C0.348468 62.434 0.387992 62.5127 0.467042 62.5521C7.58152 67.7482 14.4193 70.8974 21.1781 72.9837C21.2967 73.0231 21.4152 72.9837 21.4548 72.905C23.0358 70.7399 24.4587 68.4568 25.6839 66.0555C25.763 65.898 25.6839 65.7406 25.5258 65.7012C23.2729 64.8352 21.1386 63.8117 19.0437 62.6308C18.8856 62.5521 18.8856 62.3159 19.0042 62.1978C19.439 61.8828 19.8738 61.5286 20.3085 61.2137C20.3876 61.1349 20.5062 61.1349 20.5852 61.1743C34.1818 67.3545 48.8455 67.3545 62.284 61.1743C62.363 61.1349 62.4816 61.1349 62.5607 61.2137C62.9954 61.5679 63.4302 61.8829 63.865 62.2371C64.0231 62.3552 64.0231 62.5914 63.8254 62.6701C61.7701 63.8904 59.5963 64.8746 57.3434 65.7406C57.1853 65.78 57.1457 65.9768 57.1853 66.0949C58.4501 68.4961 59.873 70.7793 61.4144 72.9443C61.533 72.9837 61.6516 73.0231 61.7701 72.9837C68.5684 70.8974 75.4062 67.7482 82.5207 62.5521C82.5998 62.5127 82.6393 62.434 82.6393 62.3552C84.3784 44.523 79.754 29.0527 70.3866 15.3144C70.347 15.275 70.3075 15.2357 70.2285 15.2357ZM27.7392 52.9471C23.6682 52.9471 20.269 49.2074 20.269 44.6017C20.269 39.9961 23.5891 36.2564 27.7392 36.2564C31.9289 36.2564 35.2489 40.0354 35.2094 44.6017C35.2094 49.2074 31.8893 52.9471 27.7392 52.9471ZM55.2881 52.9471C51.217 52.9471 47.8179 49.2074 47.8179 44.6017C47.8179 39.9961 51.138 36.2564 55.2881 36.2564C59.4777 36.2564 62.7978 40.0354 62.7583 44.6017C62.7583 49.2074 59.4777 52.9471 55.2881 52.9471Z" fill="white"/>
</svg>
