<svg width="803" height="230" viewBox="0 0 139 40" fill="none"
    xmlns="http://www.w3.org/2000/svg">
    <path d="M73.2616 27.8218C72.9101 27.604 72.7632 27.3046 72.797 26.905C72.7743 26.8784 72.751 26.8519 72.7278 26.8254C72.749 26.8244 72.7697 26.8238 72.7909 26.8233C72.7798 26.6801 72.7637 26.5369 72.7591 26.3932C72.7288 25.4308 72.7647 24.4733 72.9707 23.5279C72.9308 23.2194 72.9142 22.9155 73.1323 22.6536C73.1268 22.6451 73.1157 22.6355 73.1167 22.628C73.1192 22.609 73.1278 22.591 73.1338 22.5724C73.1025 22.2409 73.1263 21.919 73.2985 21.622C73.3071 21.5509 73.3151 21.4803 73.3237 21.4097C73.4631 20.3331 73.5035 19.2404 73.8641 18.2004C73.7969 18.0516 73.9121 17.939 73.9429 17.8098C73.951 17.627 73.8545 17.4282 74.0277 17.2705C74.0312 17.2394 74.0348 17.2089 74.0383 17.1778C73.9595 17.0446 73.9838 16.9305 74.104 16.8338C74.1196 16.7537 74.1348 16.6736 74.1504 16.594C74.0934 15.9365 74.2065 15.3005 74.4035 14.6766C74.4161 14.637 74.4923 14.6175 74.5388 14.5889C74.5762 14.1327 74.5408 13.667 74.7171 13.2289C74.5797 13.1072 74.5979 12.985 74.7166 12.8628C74.7241 12.7527 74.7317 12.6425 74.7388 12.5318C74.7039 12.291 74.6595 12.0486 74.8267 11.8328C74.8312 11.8077 74.8332 11.7822 74.8322 11.7567C74.7868 11.5759 74.7726 11.4056 74.9807 11.3075C74.9256 11.2509 74.9352 11.1963 74.9857 11.1427C74.8191 11.0471 74.8756 10.962 74.9978 10.8794C74.9958 10.8528 74.9968 10.8258 75.0004 10.7987C74.9655 10.622 74.9312 10.4452 74.8963 10.2679C74.6292 10.301 74.4247 10.1117 74.1211 10.1332C73.3813 10.1858 72.6627 10.3005 71.938 10.4427C71.9349 10.4432 71.9319 10.4442 71.9284 10.4447C71.8834 10.4537 71.838 10.4627 71.793 10.4717C71.7461 10.4813 71.6991 10.4903 71.6516 10.4983C70.8143 10.6455 69.9507 10.6135 69.0978 10.5223C68.9695 10.5088 68.7614 10.4853 68.7195 10.5489C68.7185 10.5504 68.7175 10.5519 68.7165 10.5529C68.5635 10.7857 68.4074 10.8438 68.2377 10.8358C68.063 10.8283 67.8736 10.7512 67.656 10.7221C66.8247 10.6104 65.9586 10.6901 65.1041 10.8067C64.9062 10.8338 64.7102 10.8703 64.5143 10.9089C64.3163 10.9475 64.1183 10.989 63.9199 11.0251C63.6244 11.0792 63.3265 11.1212 63.0225 11.1277C62.8513 11.1317 62.7083 11.1478 62.5871 11.1838C62.3215 11.2649 62.1614 11.4437 62.0347 11.8067C61.765 12.5814 61.7125 13.3911 61.6418 14.1918C61.6069 14.5844 61.4867 14.7487 61.164 14.7502C61.1241 14.7502 61.0817 14.7477 61.0352 14.7432C60.9065 14.7301 60.8039 14.7422 60.7277 14.7827C60.6029 14.8468 60.5474 14.9865 60.561 15.2114C60.5883 15.657 60.5933 16.1067 60.563 16.5519C60.5343 16.9845 60.5873 17.3626 60.8969 17.7016C61.0953 17.9189 61.1822 18.2179 61.0529 18.4978C60.9726 18.6716 60.9145 18.8448 60.8837 19.0261C60.6903 20.1673 60.5009 21.309 60.3181 22.4518C60.1888 23.2575 60.0787 24.0667 59.9495 24.8724C59.7848 25.8995 59.5939 26.9225 59.4455 27.9515C59.3424 28.6641 59.1455 29.2615 58.3849 29.568C58.2329 29.6291 58.0885 29.6661 57.9547 29.6791C57.4522 29.7307 57.0992 29.4478 57.0583 28.8499C57.028 28.4052 57.0795 27.9555 57.0709 27.5089C57.0643 27.1543 57.1537 26.7868 56.9638 26.4493C56.884 26.5174 56.8093 26.5129 56.7411 26.4333C56.7148 26.4353 56.6891 26.4378 56.6628 26.4403C56.6265 26.4428 56.5896 26.4458 56.5532 26.4493C55.3584 26.5509 54.1635 26.6696 52.9656 26.7432C52.4606 26.7743 52.1192 26.7918 51.8768 26.8544C51.389 26.9806 51.3041 27.289 51.1016 28.2545C50.733 30.0106 50.7087 31.7387 51.6455 33.3857C52.4212 34.7503 53.6873 35.3727 55.1205 35.558C55.9457 35.6647 56.7911 35.6646 57.6355 35.5174C57.9385 35.4649 58.2415 35.3932 58.543 35.3006C59.5126 35.0027 60.4555 34.6902 61.3246 34.1709C61.369 34.0713 61.4448 34.0272 61.5539 34.0422C61.6226 33.9931 61.6917 33.9436 61.7609 33.894C61.8326 33.7733 61.916 33.6707 62.0796 33.7022C62.1988 33.592 62.3195 33.4814 62.4397 33.3712C62.7099 33.0647 62.98 32.7578 63.2497 32.4513C63.8229 31.7352 64.3163 30.9686 64.7153 30.1428C64.7304 30.1258 64.7456 30.1083 64.7607 30.0913C64.787 30.0247 64.8132 29.9581 64.8395 29.8915C64.8122 29.7938 64.8243 29.7112 64.9264 29.6621C64.9405 29.6211 64.9541 29.5795 64.9683 29.5384C64.9789 29.4177 64.9829 29.2951 65.0965 29.2149C65.1067 29.1819 65.1162 29.1483 65.1264 29.1148C65.1162 29.0322 65.1395 28.9611 65.1991 28.902C65.2102 28.8769 65.2299 28.8604 65.2571 28.8534L65.2592 28.8324H65.2804C65.391 28.3677 65.5097 27.905 65.6107 27.4383C65.9142 26.0342 66.046 24.601 66.3394 23.1929C66.4621 22.6055 66.6121 22.0061 66.5783 21.3917C66.5611 21.2945 66.5601 21.2054 66.6879 21.1849C66.7055 21.0136 66.7353 20.8413 66.7378 20.6691C66.7404 20.5204 66.7883 20.4427 66.8616 20.4022C66.9484 20.3536 67.0712 20.3581 67.1939 20.3576C67.51 20.3566 67.3727 20.5945 67.3838 20.7342C67.3928 20.8398 67.3151 20.95 67.307 21.0607C67.2121 22.3757 66.9464 23.6686 66.7894 24.9756C66.6262 26.3326 66.3717 27.6766 66.6449 29.0637C66.8217 29.9621 67.0217 30.8148 67.4944 31.6216C68.1433 32.7287 69.174 33.2791 70.2704 33.7558C71.7491 32.235 73.197 30.6641 74.5974 28.946C74.7671 28.7362 74.9458 28.5394 75.1317 28.3532C75.1428 28.3416 75.1539 28.3306 75.1655 28.3191C74.5105 28.3371 73.8712 28.1999 73.2616 27.8218ZM68.1524 15.3356C68.0024 15.9695 67.8211 16.594 67.7903 17.2504C67.7837 17.3987 67.6509 17.4923 67.5206 17.5824C67.4974 17.5519 67.4777 17.5219 67.4605 17.4913C67.2474 17.1072 67.5004 16.7267 67.4949 16.3516C67.4479 15.989 67.5045 15.659 67.7938 15.4002C67.7489 15.1933 67.7645 14.96 67.8898 14.8438C67.9312 14.8048 67.9852 14.7792 68.0529 14.7717C68.212 14.7542 68.1953 15.1543 68.1524 15.3356Z" fill="#FA6E06"/>
    <path d="M138.543 5.26393C138.457 5.00003 138.108 5.15376 137.875 5.1162C137.861 5.1137 137.846 5.1167 137.832 5.1177C135.973 5.21034 134.115 5.29297 132.257 5.40263C131.854 5.42617 131.491 5.55837 131.245 5.95797C130.837 6.61997 130.324 7.21786 129.847 7.82778C129.361 8.45072 128.944 9.13124 128.395 9.70911C127.774 10.3621 127.344 11.1578 126.79 11.8604C126.368 12.3957 125.899 12.8949 125.444 13.4042C125.325 13.5374 125.199 13.7131 124.977 13.5499C124.901 13.4878 124.789 13.4407 124.756 13.3611C124.344 12.3666 123.721 11.4743 123.335 10.4678C123.17 9.91693 122.819 9.45674 122.583 8.94046C122.447 8.88888 122.46 8.76069 122.432 8.65252C122.412 8.61497 122.391 8.57741 122.37 8.53986C122.072 8.33455 121.93 8.04661 121.912 7.69458C121.804 7.67605 121.729 7.62949 121.752 7.50129C121.618 7.18932 121.33 7.11821 121.038 7.05462C120.759 7.27946 120.129 7.28397 119.888 7.06263C118.52 6.96148 117.152 7.06514 115.784 7.05763C115.336 7.05512 114.888 7.03409 114.437 7.05963C113.977 7.08567 114.073 7.36208 114.191 7.53585C114.385 7.82178 114.477 8.14777 114.652 8.4377C115.251 9.4342 115.703 10.5063 116.274 11.5193C116.894 12.619 117.447 13.7562 118.002 14.8904C118.149 15.1919 118.353 15.4563 118.489 15.7727C118.69 16.2379 118.771 16.6491 118.598 17.1238C118.553 17.247 118.596 17.4027 118.665 17.5404C118.889 17.9816 119.081 18.4387 119.319 18.8714C119.471 19.1483 119.726 19.3351 120.004 19.5079C120.424 19.7698 120.776 20.0712 120.712 20.6786C120.639 21.3832 120.471 22.0652 120.293 22.7412C120.189 23.1368 120.333 23.5289 120.226 23.8895C120.004 24.6411 120.031 25.4213 119.883 26.1834C119.655 27.3587 119.6 28.5665 119.234 29.7207C119.108 30.1163 119.205 30.2085 119.626 30.1849C120.116 30.1574 120.609 30.0617 121.098 30.2055C121.087 30.1779 121.077 30.1509 121.067 30.1233C121.114 30.1203 121.161 30.1168 121.207 30.1138C121.485 30.0793 121.764 30.0833 122.041 30.1248C121.934 30.0888 121.928 30.0382 122.044 30.0302C122.282 30.0137 122.522 30.0187 122.76 30.0147C122.895 30.0247 123.032 30.0342 123.17 30.0442C123.143 30.0247 123.117 30.0052 123.09 29.9851C123.169 29.9416 123.247 29.8955 123.319 29.9961C123.874 29.9696 124.404 29.8349 124.936 29.6772C125.34 29.5575 125.588 29.3497 125.64 28.9165C125.668 28.6877 125.698 28.4618 125.696 28.231C125.692 27.5945 125.703 27.5845 126.302 27.4748C126.952 27.3557 127.04 27.2039 126.83 26.56C126.827 26.4042 126.825 26.248 126.822 26.0923C126.794 26.0627 126.766 26.0332 126.739 26.0031L126.741 26.0051C126.571 25.8529 126.501 25.6867 126.667 25.4879C126.651 25.2625 126.859 25.1629 126.948 24.9961C126.871 24.8359 126.796 24.6756 126.825 24.4899C126.797 24.4558 126.768 24.4218 126.74 24.3882C126.635 24.3597 126.561 24.3056 126.572 24.1839L126.567 24.1774C126.334 24.1659 126.397 23.9806 126.391 23.8559C126.366 23.3707 126.377 22.892 126.506 22.4112C126.639 21.917 126.826 21.4292 126.81 20.9015C126.806 20.7753 126.861 20.6486 126.992 20.5805C126.921 20.1989 127.162 19.9055 127.281 19.5775C127.245 19.4633 127.316 19.4222 127.408 19.3947L127.416 19.3862C127.417 19.2835 127.481 19.2294 127.567 19.1919C127.596 19.1493 127.625 19.1068 127.654 19.0637C127.652 18.8869 127.741 18.7788 127.909 18.7302C128.358 18.1723 128.805 17.6125 129.257 17.0562C129.551 16.6931 129.851 16.3346 130.149 15.9735C130.213 15.6265 130.443 15.4157 130.742 15.262C131.028 14.8799 131.412 14.5784 131.647 14.1498C131.727 14.0031 131.727 13.8388 131.852 13.6956C132.586 12.8594 133.296 12.0021 134.013 11.1518C134.087 10.8398 134.277 10.6065 134.521 10.4092C134.677 10.2084 134.833 10.0136 135.021 9.8328C135.608 9.26845 136.085 8.61246 136.542 7.93945C137.03 7.21987 137.534 6.5098 138.171 5.90239C138.351 5.73113 138.619 5.49327 138.545 5.26442L138.543 5.26393Z" fill="#FA6E06"/>
    <path d="M88.1328 9.69307C88.1252 9.46723 88.0641 9.31149 87.7859 9.29947C86.7895 9.25541 85.8062 9.43518 84.8139 9.47173C84.4634 9.48475 84.0967 9.57138 83.7402 9.55586C83.2842 9.53633 82.8559 9.6485 82.4161 9.7166C82.1812 9.75266 82.0944 9.87234 82.0252 10.0701C81.8449 10.5869 81.756 11.1242 81.6979 11.6615C81.6257 12.332 81.5298 13.003 81.4308 13.6655C81.3576 14.1543 81.1813 14.6655 81.1152 15.1548C80.9884 16.0912 80.8828 17.0346 80.7091 17.962C80.45 19.3466 80.3081 20.7472 79.995 22.1283C79.7466 23.2234 79.7132 24.3767 79.3895 25.4658C79.1017 26.4328 78.5562 27.2244 77.6674 27.7843C77.1367 28.1188 76.5453 28.0837 75.9832 28.2169C75.6974 28.285 75.413 28.3326 75.1317 28.3532C74.4065 28.4067 73.7 28.2825 73.0289 27.8664C72.6774 27.6486 72.5304 27.3486 72.5643 26.949C72.5415 26.9225 72.5183 26.8965 72.4951 26.8699C72.5163 26.8689 72.537 26.8679 72.5582 26.8679C72.5471 26.7247 72.5309 26.5815 72.5264 26.4373C72.4961 25.4753 72.5324 24.5174 72.738 23.5724C72.6981 23.264 72.6814 22.9595 72.8996 22.6981C72.894 22.6896 72.8829 22.6801 72.8839 22.6726C72.887 22.6536 72.895 22.6355 72.9011 22.617C72.8698 22.2855 72.8935 21.9635 73.0657 21.6661C73.0743 21.5955 73.0824 21.5249 73.091 21.4543C73.2304 20.3776 73.2708 19.2845 73.6314 18.2444C73.5642 18.0957 73.6793 17.9835 73.7106 17.8543C73.7182 17.6716 73.6218 17.4723 73.795 17.315C73.7985 17.284 73.8021 17.2534 73.8056 17.2224C73.7268 17.0887 73.751 16.9745 73.8712 16.8784C73.8869 16.7978 73.9025 16.7181 73.9177 16.638C73.8606 15.981 73.9738 15.3446 74.1707 14.7206C74.1833 14.6816 74.2596 14.662 74.3061 14.633C74.3434 14.1768 74.3081 13.7116 74.4843 13.273C74.347 13.1513 74.3651 13.0296 74.4838 12.9074C74.4914 12.7972 74.499 12.6866 74.506 12.5764C74.4712 12.3355 74.4268 12.0932 74.5939 11.8769C74.5985 11.8518 74.6005 11.8268 74.5995 11.8012C74.554 11.6205 74.5399 11.4497 74.7479 11.3516C74.6929 11.295 74.7025 11.2404 74.753 11.1873C74.5863 11.0917 74.6429 11.006 74.7651 10.9239C74.7631 10.8969 74.7641 10.8703 74.7676 10.8433C74.7328 10.6665 74.6984 10.4893 74.6636 10.3125C74.3965 10.3456 74.1919 10.1558 73.8884 10.1773C73.2278 10.2249 72.5844 10.321 71.938 10.4427C71.9349 10.4432 71.9319 10.4442 71.9284 10.4447C71.8365 10.4617 71.744 10.4798 71.6516 10.4983C71.6213 10.5043 71.5906 10.5103 71.5603 10.5163C70.6795 10.6936 69.7665 10.6625 68.865 10.5664C68.8216 10.5619 68.769 10.5564 68.7165 10.5529C68.6145 10.5469 68.5146 10.5509 68.4868 10.5934C68.405 10.7186 68.3226 10.7937 68.2377 10.8358C67.9989 10.9545 67.7409 10.8092 67.4232 10.7662C66.592 10.655 65.7259 10.7341 64.8714 10.8508C64.7517 10.8673 64.6329 10.8869 64.5143 10.9089C64.3158 10.945 64.1178 10.986 63.9199 11.0251C63.5477 11.0987 63.174 11.1643 62.7897 11.1723C62.717 11.1738 62.6498 11.1773 62.5871 11.1838C62.175 11.2274 61.962 11.3926 61.8019 11.8508C61.5322 12.6255 61.4797 13.4357 61.409 14.2359C61.3843 14.5143 61.3165 14.6781 61.164 14.7502C61.0751 14.7922 60.9575 14.8028 60.8025 14.7872C60.7762 14.7842 60.7514 14.7827 60.7277 14.7827C60.4398 14.7762 60.3081 14.9214 60.3283 15.2559C60.3556 15.7011 60.3606 16.1513 60.3308 16.5965C60.3015 17.0286 60.3545 17.4072 60.6641 17.7457C60.8626 17.963 60.95 18.2625 60.8202 18.5424C60.7399 18.7161 60.6818 18.8894 60.651 19.0707C60.4576 20.2114 60.2682 21.3531 60.0854 22.4958C59.9566 23.302 59.846 24.1108 59.7167 24.917C59.5521 25.9435 59.3612 26.9666 59.2127 27.9961C59.1097 28.7082 58.9127 29.3061 58.1522 29.6125C58.0845 29.6396 58.0188 29.6621 57.9547 29.6791C57.331 29.8524 56.8725 29.5805 56.8255 28.8945C56.7952 28.4498 56.8467 28.0001 56.8381 27.5529C56.8316 27.1984 56.921 26.8309 56.7311 26.4933C56.6513 26.562 56.5765 26.5569 56.5084 26.4778C55.2509 26.583 53.9934 26.7102 52.7329 26.7873C52.3718 26.8093 52.094 26.8248 51.8768 26.8544C51.1779 26.951 51.1002 27.1974 50.8689 28.2991C50.5002 30.0552 50.4765 31.7828 51.4128 33.4298C52.1885 34.7943 53.4546 35.4168 54.8878 35.6026C55.7887 35.7192 56.7143 35.7087 57.6355 35.5174C57.8607 35.4709 58.086 35.4138 58.3102 35.3447C59.2799 35.0467 60.2227 34.7342 61.0919 34.2155C61.1363 34.1153 61.2121 34.0713 61.3211 34.0868C61.3898 34.0377 61.459 33.9881 61.5282 33.9385C61.5999 33.8174 61.6832 33.7152 61.8469 33.7463C61.966 33.6361 62.0867 33.5259 62.2069 33.4158C62.4771 33.1088 62.7473 32.8023 63.017 32.4959C63.5902 31.7798 64.0836 31.0132 64.4825 30.1874C64.4977 30.1704 64.5128 30.1529 64.528 30.1353C64.5542 30.0692 64.5805 30.0026 64.6068 29.936C64.5795 29.8384 64.5916 29.7553 64.6936 29.7062C64.7078 29.6656 64.7214 29.6241 64.7355 29.5825C64.7461 29.4623 64.7502 29.3391 64.8638 29.2595C64.8739 29.2265 64.884 29.1929 64.8936 29.1594C64.8835 29.0767 64.9067 29.0051 64.9663 28.9465C64.9774 28.921 64.9971 28.905 65.0244 28.898L65.0264 28.8764C65.0264 28.8764 65.0481 28.8759 65.0481 28.8764C65.1582 28.4122 65.2769 27.9495 65.3779 27.4828C65.6814 26.0782 65.8132 24.6451 66.1067 23.2374C66.2294 22.6501 66.3794 22.0507 66.3455 21.4357C66.3284 21.3386 66.3273 21.2495 66.4551 21.2289C66.4728 21.0582 66.5026 20.8859 66.5056 20.7131C66.5097 20.4362 66.6732 20.4052 66.8616 20.4022C66.8939 20.4017 66.9278 20.4017 66.9611 20.4017C67.2773 20.4012 67.1399 20.6385 67.1515 20.7787C67.1601 20.8844 67.0823 20.9946 67.0743 21.1047C66.9793 22.4202 66.7137 23.7132 66.5566 25.0196C66.3935 26.3772 66.139 27.7212 66.4122 29.1078C66.5889 30.0066 66.7889 30.8594 67.2616 31.6661C67.9611 32.8594 69.1039 33.4058 70.2947 33.91C70.7159 34.0888 71.1795 34.0117 71.6229 34.0557C72.089 34.1023 72.1496 34.2145 71.8916 34.588C71.6997 34.866 71.7785 35.1869 72.0699 35.2115C72.4011 35.24 72.7547 35.267 73.0688 35.1839C73.6223 35.0372 74.1551 34.8164 74.7444 34.907C74.904 34.9315 75.0166 34.8389 75.1489 34.7813C75.862 34.4719 76.52 34.0327 77.272 33.8194C77.9533 33.6261 78.6143 33.3882 79.2532 33.0918C80.1486 32.6767 80.9909 32.1749 81.7161 31.4984C81.7696 31.4653 81.8227 31.4323 81.8757 31.3997C81.9853 31.2996 82.0959 31.1984 82.2065 31.0973C82.207 30.9866 82.2853 30.9496 82.3741 30.924C82.4039 30.886 82.4342 30.8469 82.4645 30.8083C82.56 30.7047 82.6554 30.601 82.7504 30.4979C83.5205 29.7202 84.0119 28.7537 84.5725 27.8344C84.6028 27.5489 84.7462 27.3141 84.9134 27.0912C84.9381 27.0131 84.9628 26.9345 84.9876 26.8559L84.9916 26.8319L85.0149 26.8339C85.3916 25.8974 85.5921 24.9155 85.7638 23.9265C85.834 23.3862 85.938 22.8524 86.1077 22.3331C86.1218 22.2359 86.136 22.1388 86.1506 22.0416L86.1355 22.0091L86.1703 21.9976C86.2385 21.8504 86.1946 21.6901 86.2259 21.5334C86.4062 20.6225 86.5915 19.7101 86.7082 18.7903C86.8769 17.4578 87.0238 16.1212 87.2728 14.8018C87.5278 13.4502 87.7803 12.0997 87.9576 10.7356C88.003 10.3866 88.1454 10.0526 88.1328 9.69307ZM67.5611 15.4447C67.501 15.1688 67.5495 14.8458 67.8202 14.8158C67.8489 14.8128 67.8721 14.8233 67.8898 14.8438C67.9721 14.9365 67.955 15.2314 67.9196 15.3801C67.7697 16.0136 67.5884 16.638 67.5581 17.295C67.5545 17.3731 67.5156 17.4362 67.4605 17.4913C67.4115 17.5409 67.3495 17.5844 67.2879 17.627C66.9727 17.2124 67.2682 16.8008 67.2621 16.3957C67.2152 16.0336 67.2722 15.7031 67.5611 15.4447Z" fill="#FDFEFD"/>
    <path d="M105.371 12.28C105.358 12.7231 105.428 12.7637 105.866 12.7181C106.149 12.6886 106.397 12.5959 106.662 12.5003C107.81 12.0862 109.393 12.7952 109.674 14.1563C109.788 14.7046 109.949 15.2715 110.285 15.7542C111.069 15.7647 111.846 15.6876 112.626 15.6275C113.422 15.5659 114.224 15.5809 115.024 15.5504C115.725 15.5238 115.831 15.4117 115.841 14.7517C115.839 14.7657 115.841 14.7842 115.832 14.7917C115.817 14.8053 115.795 14.8123 115.776 14.8223C115.744 14.4097 115.625 13.9975 115.768 13.5849C115.699 13.2214 115.63 12.8563 115.561 12.4913C115.456 12.3711 115.396 12.2379 115.44 12.0757C115.426 12.0481 115.412 12.0201 115.397 11.9915C115.38 11.976 115.362 11.9615 115.348 11.944C115.345 11.9405 115.359 11.9244 115.365 11.9149C115.266 11.5158 115.018 11.1888 114.804 10.8523C114.515 10.4001 114.218 9.93894 113.848 9.55486C112.928 8.60093 111.775 8.03808 110.474 7.7867C109.715 7.63948 108.956 7.43818 108.167 7.61194C107.916 7.66702 107.657 7.70408 107.4 7.71209C106.333 7.74564 105.301 7.84229 104.251 8.16127C103.032 8.53082 102.003 9.19833 100.897 9.75016C99.9239 10.2354 99.3164 11.1252 98.5235 11.8088C98.2801 12.0186 98.0281 12.2299 97.8013 12.4657C97.2519 13.0381 96.8165 13.6931 96.3651 14.3376C96.0817 14.7422 95.7641 15.1353 95.5899 15.597C95.1616 16.7277 94.5616 17.7948 94.3743 19.0171C94.2884 19.5764 94.147 20.1313 94.1233 20.6976C94.1132 20.9355 94.0066 21.0612 93.8233 21.0827C93.7925 21.0862 93.7642 21.0852 93.7385 21.0812C93.6228 21.7332 93.487 22.3777 93.3577 23.0196C93.3986 23.0191 93.4435 23.0196 93.4925 23.0211C93.9178 23.0341 93.8703 23.3361 93.8577 23.602C93.8041 24.7377 94.0228 25.8284 94.3243 26.9185C94.4601 27.4092 94.7914 27.7913 94.9318 28.267C95.1015 28.8404 95.4399 29.3522 95.7944 29.7933C96.9059 31.1784 98.4689 31.8805 100.188 32.1283C101.435 32.3081 102.707 32.225 103.977 32.0497C104.958 31.914 105.881 31.6341 106.814 31.3532L106.82 31.3527C106.938 31.3236 107.055 31.2941 107.173 31.265C107.501 31.0958 107.829 30.9265 108.155 30.7573C108.546 30.6551 108.863 30.3947 109.228 30.2325C109.282 30.0923 109.426 30.0257 109.474 29.8584C109.548 29.5985 109.766 29.4944 110.043 29.6145C110.186 29.4633 110.372 29.4012 110.567 29.3331C110.94 29.2024 111.356 29.2054 111.672 28.8844C112.166 28.3817 112.663 27.8874 113.118 27.3446C113.365 27.0512 113.383 26.6631 113.662 26.4137C113.573 26.3416 113.606 26.281 113.68 26.2244C113.668 26.1689 113.684 26.1258 113.737 26.0988C113.748 26.0547 113.76 26.0111 113.771 25.9671C113.762 25.8734 113.782 25.7893 113.853 25.7217L113.867 25.6906C113.849 25.6501 113.857 25.6215 113.904 25.611C114.001 25.1038 114.223 24.6391 114.403 24.1588C114.505 23.8859 114.662 23.6295 114.679 23.3286C114.672 23.1849 114.673 23.0462 114.874 23.0402C114.938 22.6521 115.257 22.3336 115.189 21.909C114.975 21.7808 114.72 21.8819 114.5 21.7868C114.376 21.7948 114.251 21.8028 114.127 21.8103C114.018 21.8749 113.906 21.8709 113.793 21.8253C113.721 21.8253 113.648 21.8258 113.575 21.8263L113.58 21.8238C113.235 21.8318 112.875 21.7813 112.547 21.8609C111.933 22.0106 111.331 22.0316 110.718 21.9049C110.19 22.0452 109.955 22.4983 109.709 22.8999C109.168 23.7823 108.613 24.6531 107.859 25.3707C107.201 25.9971 106.403 26.4363 105.584 26.8153C104.855 27.1528 104.743 27.284 104.809 28.0893C104.881 28.9636 104.758 29.8514 105 30.7152C105.048 30.888 104.982 31.0377 104.793 31.0868C104.56 31.1474 104.323 31.1594 104.153 30.9471C104.015 30.7733 103.973 30.565 103.957 30.3416C103.908 29.6231 104.009 28.899 103.867 28.1834C103.754 27.6135 103.669 27.5094 103.094 27.5399C102.553 27.5685 102.023 27.4964 101.486 27.4668C99.6396 27.3637 98.8886 26.0171 98.8108 24.4017C98.7841 23.8519 98.9386 23.3151 98.9916 22.7703C98.9987 22.6986 99.0164 22.628 99.0229 22.5564C99.0957 21.7743 98.9916 21.6856 98.2205 21.8654C97.8518 21.9515 97.4816 22.0281 97.0998 22.0261C96.8771 22.0251 96.6994 21.951 96.6186 21.7282C96.5443 21.5244 96.6433 21.3782 96.7681 21.2209C97.1079 20.7918 97.672 20.8313 98.0932 20.5739C98.2381 20.4853 98.42 20.4568 98.5826 20.3947C98.9921 20.2379 99.2674 20.0171 99.3507 19.5219C99.6183 17.9405 100.26 16.5058 101.402 15.3551C102.112 14.64 102.932 14.0411 103.922 13.7131C104.227 13.612 104.44 13.3646 104.362 13.0121C104.182 12.1853 104.36 11.4127 104.665 10.6495C104.743 10.4557 104.791 10.2559 105.047 10.2399C105.323 10.2229 105.404 10.4247 105.503 10.627C105.712 11.0546 105.438 11.4437 105.426 11.8523C105.422 11.995 105.374 12.1367 105.37 12.2795L105.371 12.28Z" fill="#FA6E06"/>
    <path d="M105.078 12.0977C105.067 12.4673 105.114 12.5569 105.383 12.5494C105.437 12.5484 105.5 12.5429 105.573 12.5354C105.856 12.5058 106.104 12.4132 106.368 12.3181C107.054 12.0707 107.894 12.2234 108.519 12.6761C108.519 12.6766 108.52 12.6766 108.52 12.6766C108.943 12.9831 109.268 13.4252 109.381 13.9736C109.494 14.5224 109.655 15.0892 109.991 15.5715C110.05 15.5725 110.11 15.5725 110.169 15.5725C110.892 15.5705 111.611 15.5004 112.333 15.4448C113.129 15.3832 113.932 15.3982 114.73 15.3676C115.431 15.3411 115.538 15.2294 115.548 14.5694C115.546 14.583 115.548 14.602 115.539 14.6095C115.523 14.623 115.502 14.63 115.483 14.6401C115.451 14.2274 115.332 13.8148 115.474 13.4027C115.406 13.0391 115.336 12.6741 115.268 12.309C115.163 12.1889 115.103 12.0557 115.147 11.8934C115.133 11.8659 115.118 11.8373 115.104 11.8093C115.087 11.7938 115.069 11.7792 115.055 11.7617C115.052 11.7582 115.066 11.7422 115.072 11.7327C114.973 11.3336 114.725 11.0066 114.511 10.6701C114.222 10.2179 113.925 9.75671 113.555 9.37313C113.251 9.05816 112.921 8.78525 112.569 8.5529C111.856 8.08119 111.052 7.77322 110.181 7.60447C109.422 7.45775 108.663 7.25645 107.874 7.42971C107.623 7.48529 107.364 7.52185 107.107 7.52986C106.04 7.56391 105.008 7.66055 103.958 7.97903C102.739 8.34859 101.71 9.01609 100.604 9.56792C99.6305 10.0532 99.0235 10.943 98.2306 11.6265C97.9872 11.8358 97.7347 12.0472 97.5085 12.2835C96.9585 12.8559 96.5232 13.5109 96.0722 14.1553C95.7884 14.5599 95.4713 14.953 95.2965 15.4147C94.8683 16.5454 94.2683 17.6125 94.0809 18.8349C93.9956 19.3942 93.8537 19.949 93.8305 20.5154C93.8204 20.7533 93.7138 20.8789 93.5305 20.9005C93.3012 20.927 93.2103 20.7187 93.2017 20.5344C93.1866 20.2195 93.1699 19.893 93.2346 19.588C93.4689 18.4893 93.5653 17.3732 93.7022 16.2625C93.8168 15.3351 94.0138 14.4212 94.14 13.4948C94.2168 12.931 94.3021 12.3576 94.4112 11.7928C94.5592 11.0236 94.6051 10.2349 94.7632 9.46877C94.9188 8.71414 94.9213 8.67508 94.1673 8.68409C94.0799 8.6851 93.9926 8.68409 93.9052 8.6901C93.1987 8.73517 92.5088 8.91043 91.7902 8.89241C91.1039 8.87538 90.3797 8.78374 89.7964 9.31905C89.7005 9.40668 89.5192 9.46026 89.3889 9.44273C89.0924 9.40317 89.0116 9.56692 88.9435 9.79226C88.7783 10.3356 88.6627 10.8939 88.5324 11.4432C88.448 11.8008 88.3081 12.2745 88.7531 12.589C88.8864 12.6831 88.7541 12.8073 88.6965 12.8689C88.0854 13.5254 88.1132 14.3526 88.088 15.1538C88.0794 15.4282 88.2374 15.6946 88.2319 15.9921C88.2188 16.7097 88.4298 16.8874 89.146 16.8344C89.2894 16.8238 89.4757 16.6676 89.5641 16.8844C89.6363 17.0622 89.5126 17.2104 89.3737 17.3296C89.0636 17.596 88.9616 17.9671 88.8596 18.3396C88.7748 18.6491 89.0692 19.0832 88.7495 19.2525C88.4945 19.3872 88.095 19.28 87.7642 19.2405C87.4178 19.1994 87.2976 19.3627 87.2607 19.6651C87.2224 19.9871 87.1416 20.3061 87.1264 20.6281C87.0906 21.3907 86.8941 22.1253 86.7406 22.8649C86.5946 23.565 86.6224 24.2926 86.4431 24.9721C86.2295 25.7823 86.1684 26.6136 86.0038 27.4283C85.8356 28.2575 85.8245 29.1299 85.6412 29.9641C85.4897 30.6521 85.5407 31.3823 85.1892 32.0342C85.1185 32.1659 85.1134 32.3913 85.2356 32.567C85.8346 33.4273 87.3577 33.7042 88.2011 33.0938C88.4778 32.8935 88.7788 32.7929 89.1212 32.7904C89.7121 32.7859 90.304 32.7944 90.8827 32.6291C91.0776 32.573 91.2291 32.4734 91.2705 32.2876C91.4705 31.3883 91.5872 30.4754 91.6842 29.56C91.6705 29.3948 91.6488 29.228 91.7372 29.0748C91.7857 28.7127 91.8347 28.3492 91.8836 27.9851C91.8791 27.911 91.874 27.8364 91.87 27.7623C91.8695 27.7493 91.8745 27.7358 91.8771 27.7222C91.8841 27.7262 91.8917 27.7303 91.8988 27.7353C91.9306 27.4919 91.9629 27.247 91.9947 27.0022C91.9882 27.0042 91.9816 27.0067 91.975 27.0092C91.9801 26.9997 91.9856 26.9901 91.9912 26.9806C92.0513 26.6026 92.1094 26.2235 92.173 25.8454C92.3109 25.0242 92.473 24.2059 92.5841 23.3807C92.6487 22.9035 92.7038 22.8234 93.1992 22.8384C93.277 22.8409 93.3386 22.8529 93.3881 22.8724C93.4694 22.9055 93.5163 22.9591 93.5426 23.0247C93.587 23.1363 93.5714 23.2831 93.5648 23.4198C93.5113 24.555 93.7295 25.6461 94.0309 26.7363C94.1668 27.227 94.4981 27.6091 94.639 28.0848C94.8087 28.6581 95.147 29.1694 95.5015 29.6111C95.9763 30.2035 96.5348 30.6707 97.1524 31.0307C97.1524 31.0307 97.1524 31.0312 97.1535 31.0312C97.9791 31.5139 98.9119 31.8044 99.8952 31.9461C101.143 32.1259 102.415 32.0432 103.684 31.868C104.666 31.7323 105.588 31.4518 106.521 31.1709H106.527C106.644 31.1414 106.762 31.1118 106.88 31.0828C107.208 30.9135 107.536 30.7443 107.861 30.575C108.254 30.4729 108.57 30.2125 108.934 30.0502C108.989 29.91 109.133 29.8429 109.181 29.6757C109.255 29.4158 109.473 29.3116 109.75 29.4323C109.892 29.2806 110.079 29.219 110.273 29.1509C110.647 29.0202 111.063 29.0232 111.378 28.7022C111.873 28.1995 112.37 27.7052 112.825 27.1624C113.071 26.869 113.09 26.4809 113.369 26.2315C113.331 26.201 113.315 26.1719 113.315 26.1449C113.315 26.1359 113.317 26.1268 113.32 26.1178C113.326 26.1043 113.334 26.0918 113.346 26.0788C113.35 26.0743 113.354 26.0703 113.358 26.0662C113.366 26.0582 113.376 26.0497 113.387 26.0422C113.374 25.9861 113.391 25.9436 113.444 25.9165C113.455 25.8725 113.466 25.8289 113.478 25.7848C113.468 25.6912 113.489 25.6071 113.559 25.5395C113.559 25.5385 113.573 25.5084 113.573 25.5084C113.555 25.4678 113.564 25.4393 113.611 25.4288C113.708 24.9215 113.931 24.4568 114.11 23.9771C114.212 23.7037 114.368 23.4478 114.386 23.1469C114.379 23.0026 114.38 22.8644 114.58 22.8584C114.639 22.5049 114.909 22.2089 114.905 21.8379C114.905 21.8018 114.902 21.7653 114.896 21.7272C114.681 21.5985 114.426 21.7002 114.206 21.605C114.082 21.6131 113.958 21.6206 113.833 21.6286C113.724 21.6937 113.612 21.6892 113.499 21.6441C113.427 21.6441 113.354 21.6441 113.282 21.6451C113.282 21.6451 113.286 21.6421 113.287 21.6421H113.282C112.938 21.6501 112.58 21.6 112.254 21.6796C111.639 21.8294 111.037 21.8499 110.424 21.7232C109.897 21.8634 109.662 22.3166 109.416 22.7187C108.875 23.601 108.32 24.4719 107.566 25.1894C106.907 25.8159 106.109 26.255 105.291 26.6341C104.562 26.9716 104.45 27.1028 104.516 27.9085C104.587 28.7828 104.465 29.6707 104.706 30.534C104.755 30.7072 104.688 30.8565 104.499 30.9055C104.379 30.9371 104.257 30.9556 104.145 30.9361C104.039 30.9186 103.942 30.8685 103.86 30.7658C103.722 30.5921 103.679 30.3837 103.664 30.1604C103.615 29.4418 103.716 28.7177 103.574 28.0022C103.532 27.7939 103.495 27.6481 103.436 27.548C103.333 27.3742 103.166 27.3392 102.801 27.3587C102.26 27.3872 101.729 27.3151 101.193 27.2856C100.713 27.2585 100.306 27.1479 99.9669 26.9696C99.0008 26.4633 98.5751 25.4158 98.5175 24.2205C98.4912 23.6706 98.6453 23.1338 98.6983 22.5885C98.7054 22.5169 98.723 22.4463 98.7296 22.3747C98.7553 22.0993 98.7589 21.9095 98.719 21.7878C98.6458 21.5635 98.4266 21.5675 97.9271 21.6837C97.5585 21.7698 97.1883 21.8464 96.8065 21.8444C96.759 21.8444 96.7136 21.8404 96.6707 21.8329C96.5126 21.8048 96.3894 21.7217 96.3257 21.5469C96.2515 21.3426 96.3505 21.1969 96.4752 21.0392C96.8151 20.61 97.3792 20.6496 97.8004 20.3922C97.9453 20.3036 98.1271 20.275 98.2897 20.2129C98.6993 20.0562 98.9745 19.8354 99.0584 19.3401C99.3255 17.7582 99.9674 16.3241 101.11 15.1729C101.819 14.4578 102.639 13.8594 103.629 13.5314C103.934 13.4302 104.147 13.1829 104.07 12.8298C103.889 12.0031 104.068 11.2304 104.373 10.4673C104.45 10.2735 104.498 10.0732 104.754 10.0577C104.933 10.0466 105.03 10.1268 105.103 10.2394C105.143 10.3015 105.176 10.3731 105.211 10.4447C105.42 10.8724 105.145 11.2615 105.134 11.6706C105.13 11.8133 105.082 11.955 105.078 12.0977ZM89.1126 29.0763C88.7611 29.1023 88.8536 28.8184 88.8303 28.6406C88.8202 28.4183 88.7919 28.199 89.1051 28.208C89.3465 28.2145 89.5449 28.23 89.5464 28.576C89.5485 28.907 89.4025 29.0547 89.1126 29.0763ZM90.3641 11.8949L90.3661 11.8699L90.3918 11.8849L90.3641 11.8949ZM92.3134 11.2595C91.7352 11.4958 91.1706 11.7833 90.4181 11.8398C90.7529 11.4543 90.5681 11.2169 90.3146 10.9916C90.2403 10.9255 90.1489 10.8519 90.21 10.7372C90.263 10.638 90.3706 10.617 90.4741 10.616C91.0963 10.6085 91.7185 10.605 92.3407 10.598C92.475 10.5965 92.5846 10.6596 92.5902 10.7818C92.6003 10.9871 92.5063 11.1804 92.3134 11.2595Z" fill="#FDFEFD"/>
    <path d="M133.777 11.1958C133.059 12.0461 132.35 12.9034 131.617 13.7396C131.491 13.8828 131.492 14.0471 131.411 14.1938C131.176 14.6225 130.792 14.9239 130.507 15.306C130.207 15.4597 129.977 15.6705 129.914 16.0176C129.616 16.3781 129.315 16.7366 129.021 17.1002C128.569 17.6565 128.122 18.2164 127.673 18.7742C127.506 18.8228 127.417 18.9314 127.418 19.1077C127.389 19.1503 127.36 19.1928 127.331 19.2359C127.245 19.2735 127.181 19.3275 127.18 19.4302L127.172 19.4387C127.081 19.4657 127.009 19.5068 127.045 19.6215C126.927 19.9495 126.685 20.2424 126.756 20.6245C126.626 20.6926 126.57 20.8193 126.575 20.9455C126.59 21.4733 126.403 21.961 126.27 22.4552C126.141 22.9355 126.131 23.4142 126.155 23.8999C126.161 24.0241 126.098 24.2099 126.332 24.2214L126.336 24.2279C126.326 24.3501 126.399 24.4042 126.505 24.4322C126.533 24.4663 126.562 24.4998 126.59 24.5339C126.56 24.7191 126.636 24.8799 126.712 25.0401C126.624 25.2069 126.416 25.3065 126.432 25.5319C126.266 25.7307 126.337 25.8969 126.505 26.0492L126.503 26.0471C126.532 26.0777 126.561 26.1087 126.59 26.1393C126.59 26.1393 126.587 26.1328 126.587 26.1333C126.589 26.29 126.592 26.4472 126.595 26.604C126.804 27.248 126.717 27.3997 126.067 27.5189C125.468 27.6285 125.456 27.6385 125.461 28.275C125.462 28.5063 125.432 28.7317 125.405 28.9605C125.352 29.3937 125.105 29.6015 124.7 29.7212C124.17 29.8784 123.638 30.0136 123.084 30.0402C123.012 29.9395 122.933 29.9856 122.855 30.0291C122.881 30.0487 122.908 30.0682 122.934 30.0882C122.797 30.0782 122.66 30.0687 122.524 30.0587C122.287 30.0627 122.048 30.0577 121.809 30.0742C121.693 30.0822 121.699 30.1333 121.806 30.1688C121.528 30.1273 121.25 30.1238 120.972 30.1578C120.926 30.1608 120.878 30.1643 120.831 30.1673C120.842 30.1949 120.852 30.2219 120.862 30.2495C120.374 30.1058 119.882 30.2014 119.391 30.2289C118.97 30.2525 118.873 30.1603 118.998 29.7647C119.365 28.6105 119.419 27.4027 119.648 26.2274C119.796 25.4653 119.769 24.6851 119.991 23.9335C120.098 23.5729 119.954 23.1803 120.058 22.7852C120.236 22.1092 120.403 21.4272 120.477 20.7226C120.541 20.1152 120.189 19.8138 119.768 19.5519C119.491 19.3791 119.236 19.1923 119.084 18.9154C118.845 18.4828 118.653 18.0256 118.43 17.5844C118.36 17.4467 118.318 17.291 118.362 17.1678C118.536 16.6931 118.454 16.282 118.254 15.8168C118.118 15.5008 117.914 15.2359 117.767 14.9344C117.212 13.8007 116.659 12.663 116.039 11.5634C115.468 10.5503 115.016 9.47821 114.416 8.48171C114.242 8.19178 114.15 7.86579 113.956 7.57986C113.838 7.4061 113.742 7.12968 114.202 7.10364C114.653 7.0781 115.101 7.09913 115.549 7.10164C116.917 7.10915 118.285 7.00549 119.652 7.10665C119.894 7.32798 120.524 7.32347 120.803 7.09863C121.095 7.16173 121.382 7.23334 121.516 7.54531C121.494 7.675 121.571 7.72157 121.682 7.7391C121.682 7.7391 121.676 7.72207 121.676 7.72257C121.692 8.08211 121.833 8.37505 122.135 8.58387C122.156 8.62142 122.177 8.65898 122.198 8.69654C122.225 8.8047 122.213 8.93289 122.349 8.98447C122.584 9.50075 122.935 9.96094 123.1 10.5118C123.486 11.5183 124.109 12.4106 124.521 13.4051C124.554 13.4847 124.667 13.5318 124.742 13.5939C124.965 13.7567 125.09 13.5814 125.209 13.4482C125.664 12.9389 126.133 12.4397 126.555 11.9044C127.109 11.2018 127.539 10.4061 128.16 9.75313C128.709 9.17576 129.126 8.49523 129.613 7.8718C130.089 7.26138 130.602 6.66398 131.011 6.00198C131.256 5.60288 131.619 5.47068 132.023 5.44665C133.88 5.33748 135.738 5.25436 137.597 5.16172C137.612 5.16122 137.626 5.15821 137.64 5.16022C137.873 5.19777 138.223 5.04404 138.308 5.30794C138.382 5.53728 138.114 5.77464 137.934 5.9459C137.296 6.55331 136.793 7.26338 136.305 7.98296C135.848 8.65598 135.37 9.31196 134.784 9.87681C134.596 10.0576 134.44 10.2524 134.284 10.4532C134.04 10.651 133.849 10.8843 133.775 11.1958H133.777Z" fill="#FDFEFD"/>
    <path d="M115.994 18.9159C115.93 18.5288 115.542 18.7301 115.298 18.6751C115.229 18.6595 115.153 18.6816 115.08 18.6821C113.687 18.6951 112.295 18.8193 110.9 18.7637C110.279 18.7392 110.163 18.638 110.157 18.0251C110.151 17.2038 110.408 16.3657 109.991 15.5715C109.655 15.0892 109.494 14.5224 109.381 13.9736C109.268 13.4252 108.943 12.9831 108.52 12.6766C108.52 12.6766 108.52 12.6766 108.519 12.6761C107.894 12.2234 107.054 12.0707 106.368 12.3181C106.104 12.4132 105.856 12.5058 105.573 12.5354C105.5 12.5429 105.437 12.5484 105.383 12.5494C105.114 12.5569 105.067 12.4673 105.078 12.0977C105.082 11.955 105.13 11.8133 105.134 11.6706C105.145 11.2615 105.42 10.8724 105.211 10.4447C105.176 10.3731 105.143 10.3015 105.103 10.2394C105.03 10.1268 104.933 10.0466 104.754 10.0577C104.498 10.0732 104.45 10.2735 104.373 10.4673C104.068 11.2304 103.889 12.0031 104.07 12.8298C104.147 13.1829 103.934 13.4302 103.629 13.5314C102.639 13.8594 101.819 14.4578 101.11 15.1729C99.9674 16.3241 99.3255 17.7582 99.0584 19.3401C98.9745 19.8354 98.6993 20.0562 98.2897 20.2129C98.1271 20.275 97.9453 20.3036 97.8004 20.3922C97.3792 20.6496 96.8151 20.61 96.4752 21.0392C96.3505 21.1969 96.2515 21.3426 96.3257 21.5469C96.3894 21.7217 96.5126 21.8048 96.6707 21.8329C96.7136 21.8404 96.759 21.8444 96.8065 21.8444C97.1883 21.8464 97.5585 21.7698 97.9271 21.6837C98.4266 21.5675 98.6458 21.5635 98.719 21.7878C98.7589 21.9095 98.7553 22.0993 98.7296 22.3747C98.723 22.4463 98.7054 22.5169 98.6983 22.5885C98.6453 23.1338 98.4912 23.6706 98.5175 24.2205C98.5751 25.4158 99.0008 26.4633 99.9669 26.9696C100.306 27.1479 100.713 27.2585 101.193 27.2856C101.729 27.3151 102.26 27.3872 102.801 27.3587C103.166 27.3392 103.333 27.3742 103.436 27.548C103.495 27.6481 103.532 27.7939 103.574 28.0022C103.716 28.7177 103.615 29.4418 103.664 30.1604C103.679 30.3837 103.722 30.5921 103.86 30.7658C103.942 30.8685 104.039 30.9186 104.145 30.9361C104.257 30.9556 104.379 30.9371 104.499 30.9055C104.688 30.8565 104.755 30.7072 104.706 30.534C104.465 29.6707 104.587 28.7828 104.516 27.9085C104.45 27.1028 104.562 26.9716 105.291 26.6341C106.109 26.255 106.907 25.8159 107.566 25.1894C108.32 24.4719 108.875 23.601 109.416 22.7187C109.662 22.3166 109.897 21.8634 110.424 21.7232C110.769 20.7352 111.335 20.1663 112.408 20.2004C113.07 20.2214 113.738 20.1027 114.403 20.0571C114.791 20.0306 115.175 20.0516 115.53 19.8178C115.871 19.5924 116.054 19.28 115.994 18.9159ZM103.86 18.8088C103.883 19.1017 103.695 19.296 103.382 19.321C102.745 19.3721 102.109 19.4342 101.471 19.4582C101.063 19.4733 100.948 19.285 101.137 18.9084C101.41 18.3666 101.713 17.8353 102.143 17.3971C102.446 17.0887 102.782 16.8153 103.041 16.4612C103.149 16.3135 103.306 16.1918 103.462 16.0892C103.601 15.997 103.762 15.8568 103.939 15.9615C104.1 16.0566 104.035 16.2474 104.037 16.4001C104.038 16.5298 104.022 16.6595 104.013 16.7892C104.07 17.4698 103.807 18.1247 103.86 18.8088ZM102.537 25.3877C101.653 24.9535 100.931 24.3441 100.923 23.2369C100.732 23.2269 100.475 23.31 100.478 22.9886C100.48 22.7572 100.343 22.4412 100.758 22.3927C100.782 22.2695 100.704 22.1728 100.675 22.0632C100.537 21.5319 100.744 21.1918 101.28 21.0877C101.952 20.957 102.636 20.9375 103.317 20.8914C103.635 20.8699 103.68 21.0987 103.695 21.3536C103.75 22.277 103.528 23.1909 103.609 24.1147C103.626 24.3005 103.614 24.4893 103.615 24.6766C103.62 25.3676 103.175 25.7006 102.537 25.3877ZM108.448 20.7547C108.267 21.5494 107.889 22.257 107.492 22.9615C107.092 23.6716 106.445 24.1393 105.869 24.6786C105.806 24.7367 105.73 24.7812 105.655 24.8243C105.033 25.1839 104.939 25.1298 104.918 24.4217C104.895 23.644 104.867 22.8664 104.834 22.0892C104.823 21.8298 104.887 21.621 105.088 21.4332C105.27 21.2625 105.46 21.0942 105.522 20.8128C105.575 20.5739 105.809 20.4673 106.055 20.4587C106.36 20.4482 106.666 20.4562 107.087 20.4562C107.35 20.4347 107.726 20.4032 108.103 20.3726C108.387 20.3491 108.516 20.4587 108.448 20.7547ZM108.855 18.0016C108.764 18.6495 108.625 18.7672 107.954 18.7912C107.27 18.8158 106.592 18.8909 105.919 19.0216C105.721 19.0601 105.513 19.0662 105.311 19.0561C105.042 19.0421 104.916 18.8408 105.05 18.6405C105.346 18.1973 105.241 17.7241 105.247 17.2559C105.256 16.6355 105.264 16.0151 105.265 15.3946C105.265 15.0882 105.396 14.9014 105.71 14.8558C107.221 14.637 107.91 14.8488 108.431 16.2329C108.601 16.6846 108.983 17.0711 108.857 17.5644C108.857 17.7422 108.872 17.8739 108.855 18.0016Z" fill="#FA6E06"/>
    <path d="M91.4351 7.3891C90.4933 7.47523 89.5146 7.3245 88.5465 7.51629C88.2167 7.58139 87.8415 7.23336 87.795 6.89936C87.7713 6.7291 87.8455 6.62144 87.9849 6.56486C88.3217 6.42865 88.3919 6.15875 88.3944 5.83927C88.4045 4.56986 88.4146 3.29995 88.4354 2.03054C88.4389 1.80319 88.4793 1.57285 88.5308 1.35051C88.5959 1.06809 88.8111 1.00749 89.0818 1.00299C89.4136 0.997981 89.2909 1.24385 89.3333 1.39658C89.4095 1.66899 89.4802 1.91035 89.7565 2.09713C89.9883 2.25387 90.1125 2.56233 90.2994 2.79218C90.3665 2.8743 90.4534 3.008 90.5791 2.94942C90.67 2.90685 90.7104 2.79168 90.7231 2.66699C90.7938 1.95943 90.9155 1.26188 91.2175 0.607893C91.2826 0.46668 91.3266 0.311948 91.4134 0.185758C91.5452 -0.00552993 91.6897 -0.118701 91.8321 0.20078C92.1548 0.92537 92.5659 1.61942 92.5951 2.44115C92.6012 2.60841 92.6497 2.74711 92.8189 2.8052C93.0168 2.8733 93.1037 2.71456 93.2042 2.59739C93.4774 2.27791 93.7627 1.96744 94.0132 1.63143C94.1779 1.4106 94.3743 1.39358 94.6031 1.44665C94.8344 1.50074 94.8824 1.73108 94.9248 1.89533C95.0015 2.19328 95.0177 2.51126 95.0228 2.82173C95.0369 3.7361 95.1616 4.62344 95.4268 5.50727C95.5702 5.98549 95.5798 6.51929 95.5581 7.03557C95.55 7.22736 95.4485 7.28794 95.2763 7.27392C95.0364 7.25439 94.8238 7.15124 94.8308 6.89686C94.8445 6.38008 94.7798 5.82324 94.6248 5.39159C94.396 4.75614 94.6208 4.11818 94.3854 3.51126C94.3061 3.30595 94.4051 3.03355 94.4183 2.79168C94.4258 2.65347 94.394 2.52478 94.2314 2.49974C94.0602 2.4737 94.0839 2.64496 94.0309 2.72959C93.8158 3.0706 93.9481 3.47771 93.8188 3.84827C93.7042 4.17726 93.5612 4.36355 93.2017 4.37807C92.8189 4.39359 92.6058 4.1983 92.525 3.85829C92.3664 3.19178 91.9765 2.6034 91.8695 1.91887C91.8578 1.84425 91.8321 1.69653 91.7124 1.68752C91.573 1.6775 91.5472 1.8042 91.5058 1.91236C91.3341 2.36504 91.4382 2.84175 91.3715 3.30345C91.3346 3.55933 91.4574 3.91437 91.0877 3.99299C90.7059 4.07461 90.3443 3.96645 90.0933 3.63044C89.9595 3.45117 89.8625 3.24837 89.6302 3.14972C89.4211 3.06108 89.3146 3.03354 89.253 3.31296C89.1858 3.61692 89.1838 3.91838 89.2141 4.21532C89.2742 4.80571 89.2802 5.3946 89.2626 5.98649C89.2444 6.5914 89.3605 6.71709 89.9575 6.65099C91.019 6.53331 92.0795 6.62645 93.1406 6.62194C93.5486 6.62044 93.9562 6.66451 94.3329 6.84278C94.4309 6.88884 94.5788 6.90587 94.5496 7.06511C94.5253 7.19781 94.4097 7.23036 94.2915 7.2614C93.7345 7.40712 93.1643 7.37307 92.5987 7.3886C92.2209 7.39911 91.8422 7.3906 91.4361 7.3906L91.4351 7.3891Z" fill="#FDFEFD"/>
    <path d="M89.097 33.625C89.3919 33.6115 89.6222 33.6591 89.8515 33.7603C89.9782 33.8163 90.1434 33.7868 90.1333 33.9977C90.1252 34.1574 90.1075 34.2751 89.9343 34.3803C89.4742 34.6588 88.9642 34.6668 88.4607 34.7123C88.2895 34.7279 88.2041 34.5811 88.2238 34.4193C88.2526 34.184 88.096 33.893 88.4268 33.7402C88.6571 33.634 88.896 33.6035 89.097 33.625Z" fill="#FDFEFD"/>
    <path d="M119.515 20.6085C119.554 20.7387 119.409 20.8954 119.395 21.0832C119.379 21.2955 119.251 21.4658 119.021 21.5053C118.82 21.5399 118.606 21.5504 118.473 21.3541C118.344 21.1643 118.342 20.96 118.445 20.7487C118.568 20.4943 118.783 20.3216 118.98 20.1348C119.097 20.0241 119.255 20.0462 119.385 20.1133C119.568 20.2079 119.479 20.3947 119.515 20.6085Z" fill="#FDFEFD"/>
    <path d="M124.744 13.5934C124.668 13.5313 124.555 13.4843 124.523 13.4046C124.111 12.4102 123.487 11.5178 123.102 10.5113C123.471 10.8313 123.591 11.293 123.804 11.7046C124.127 12.33 124.511 12.9244 124.744 13.5934Z" fill="#FDFEFD"/>
    <path d="M126.332 24.2204C126.099 24.2089 126.161 24.0236 126.155 23.899C126.131 23.4137 126.142 22.935 126.271 22.4543C126.404 21.96 126.591 21.4723 126.575 20.9445C126.571 20.8183 126.626 20.6916 126.756 20.6235C126.824 21.2064 126.668 21.7597 126.519 22.3121C126.349 22.9385 126.288 23.574 126.332 24.2204Z" fill="#FDFEFD"/>
    <path d="M115.548 14.5694C115.546 14.583 115.548 14.602 115.539 14.6095C115.523 14.623 115.502 14.63 115.483 14.6401C115.451 14.2274 115.332 13.8148 115.474 13.4027C115.586 13.7873 115.529 14.1808 115.548 14.5694Z" fill="#FDFEFD"/>
    <path d="M62.2069 33.4158C62.4771 33.1088 62.7473 32.8023 63.017 32.4959C62.9064 32.9406 62.562 33.1829 62.2069 33.4158Z" fill="#FDFEFD"/>
    <path d="M120.804 7.09865C120.524 7.32353 119.895 7.32804 119.653 7.10667C120.037 7.03505 120.42 7.03204 120.804 7.09865Z" fill="#FDFEFD"/>
    <path d="M121.806 30.1688C121.699 30.1333 121.693 30.0822 121.809 30.0742C122.048 30.0577 122.287 30.0627 122.524 30.0587C122.315 30.2916 122.043 30.1143 121.806 30.1688Z" fill="#FDFEFD"/>
    <path d="M130.507 15.306C130.207 15.4597 129.977 15.6705 129.914 16.0176C130.18 15.8363 130.4 15.618 130.507 15.306Z" fill="#FDFEFD"/>
    <path d="M133.777 11.1958C133.851 10.8838 134.042 10.6506 134.285 10.4532C134.317 10.8364 134.038 11.01 133.777 11.1958Z" fill="#FDFEFD"/>
    <path d="M122.136 8.58355C121.834 8.37471 121.692 8.08172 121.677 7.72211C121.952 7.94549 122.067 8.2525 122.136 8.58355Z" fill="#FDFEFD"/>
    <path d="M61.5282 33.9385C61.5999 33.8174 61.6832 33.7152 61.8469 33.7463C61.7625 33.8474 61.6767 33.9441 61.5282 33.9385Z" fill="#FDFEFD"/>
    <path d="M127.673 18.7742C127.506 18.8228 127.417 18.9314 127.418 19.1077C127.561 19.0401 127.689 18.961 127.673 18.7742Z" fill="#FDFEFD"/>
    <path d="M114.386 23.1469C114.379 23.0026 114.38 22.8644 114.58 22.8584C114.589 23.0037 114.604 23.1524 114.386 23.1469Z" fill="#FDFEFD"/>
    <path d="M122.935 30.0873C122.908 30.0677 122.882 30.0482 122.855 30.0282C122.934 29.9846 123.013 29.9385 123.084 30.0392C123.057 30.1273 122.985 30.0723 122.935 30.0873Z" fill="#FDFEFD"/>
    <path d="M56.7311 26.4933C56.6513 26.562 56.5765 26.5569 56.5084 26.4778C56.5882 26.4162 56.6629 26.4112 56.7311 26.4933Z" fill="#FDFEFD"/>
    <path d="M61.0919 34.2155C61.1363 34.1153 61.2121 34.0713 61.3211 34.0868C61.2853 34.202 61.207 34.2415 61.0919 34.2155Z" fill="#FDFEFD"/>
    <path d="M126.432 25.5319C126.266 25.7307 126.337 25.8969 126.505 26.0492C126.509 25.8729 126.521 25.6956 126.432 25.5319Z" fill="#FDFEFD"/>
    <path d="M126.59 24.5339C126.56 24.7191 126.636 24.8799 126.712 25.0401C126.796 24.8418 126.819 24.6576 126.59 24.5339Z" fill="#FDFEFD"/>
    <path d="M120.862 30.2495C120.852 30.2219 120.842 30.1949 120.831 30.1673C120.878 30.1643 120.926 30.1608 120.972 30.1578C121.027 30.2959 120.909 30.231 120.862 30.2495Z" fill="#FDFEFD"/>
    <path d="M115.268 12.309C115.163 12.1889 115.103 12.0557 115.147 11.8934C115.278 12.0066 115.314 12.1458 115.268 12.309Z" fill="#FDFEFD"/>
    <path d="M81.7161 31.4984C81.7696 31.4653 81.8227 31.4323 81.8757 31.3997C81.8606 31.4943 81.813 31.5364 81.7161 31.4984Z" fill="#FDFEFD"/>
    <path d="M64.7355 29.5825C64.7461 29.4623 64.7502 29.3391 64.8638 29.2595C64.8785 29.3902 64.8199 29.4913 64.7355 29.5825Z" fill="#FDFEFD"/>
    <path d="M106.521 31.1709H106.527C106.538 31.1854 106.55 31.1994 106.561 31.2144C106.548 31.1999 106.534 31.1849 106.521 31.1709Z" fill="#FDFEFD"/>
    <path d="M126.587 26.1333C126.589 26.29 126.592 26.4472 126.595 26.604C126.745 26.4447 126.716 26.288 126.587 26.1333Z" fill="#FDFEFD"/>
    <path d="M64.6068 29.936C64.5795 29.8384 64.5916 29.7553 64.6936 29.7062C64.7431 29.8124 64.6436 29.8629 64.6068 29.936Z" fill="#FDFEFD"/>
    <path d="M126.336 24.2279C126.326 24.3501 126.399 24.4042 126.505 24.4322C126.519 24.3075 126.476 24.2279 126.336 24.2279Z" fill="#FDFEFD"/>
    <path d="M113.833 21.6286C113.724 21.6937 113.612 21.6892 113.499 21.6441C113.607 21.5635 113.719 21.563 113.833 21.6286Z" fill="#FDFEFD"/>
    <path d="M127.046 19.6215C127.01 19.5073 127.081 19.4663 127.173 19.4387C127.197 19.5444 127.181 19.6235 127.046 19.6215Z" fill="#FDFEFD"/>
    <path d="M127.331 19.2359C127.245 19.2735 127.181 19.3275 127.18 19.4302C127.323 19.4367 127.368 19.3676 127.331 19.2359Z" fill="#FDFEFD"/>
    <path d="M91.9947 27.0022C91.9882 27.0042 91.9816 27.0067 91.975 27.0092C91.9801 26.9997 91.9856 26.9901 91.9912 26.9806L91.9947 27.0022Z" fill="#FDFEFD"/>
    <path d="M122.35 8.98401C122.214 8.93243 122.226 8.80421 122.199 8.69603C122.344 8.74311 122.306 8.88485 122.35 8.98401Z" fill="#FDFEFD"/>
    <path d="M113.478 25.7848C113.468 25.6912 113.489 25.6071 113.559 25.5395C113.567 25.6331 113.591 25.7312 113.478 25.7848Z" fill="#FDFEFD"/>
    <path d="M72.5643 26.949C72.5415 26.9225 72.5183 26.8965 72.4951 26.8699C72.5163 26.8689 72.537 26.8679 72.5582 26.8679C72.5668 26.8869 72.5768 26.9044 72.5813 26.924C72.5828 26.9305 72.5708 26.941 72.5643 26.949Z" fill="#FDFEFD"/>
    <path d="M64.8936 29.1594C64.8835 29.0767 64.9067 29.0051 64.9663 28.9465C64.9684 29.0267 64.9891 29.1123 64.8936 29.1594Z" fill="#FDFEFD"/>
    <path d="M121.683 7.73914C121.572 7.72111 121.495 7.67504 121.517 7.54532C121.6 7.58739 121.706 7.60943 121.683 7.73914Z" fill="#FDFEFD"/>
    <path d="M113.369 26.2315C113.279 26.1589 113.312 26.0982 113.388 26.0411C113.382 26.1047 113.376 26.1679 113.369 26.2315Z" fill="#FDFEFD"/>
    <path d="M115.104 11.8093C115.087 11.7938 115.069 11.7792 115.055 11.7617C115.052 11.7582 115.066 11.7422 115.072 11.7327C115.086 11.7472 115.103 11.7596 115.113 11.7761C115.117 11.7826 115.107 11.7983 115.104 11.8093Z" fill="#FDFEFD"/>
    <path d="M86.1506 22.0416L86.1355 22.0091L86.1703 21.9976C86.1698 21.9981 86.1764 22.0281 86.1764 22.0281L86.1506 22.0416Z" fill="#FDFEFD"/>
    <path d="M126.591 26.1387C126.562 26.1082 126.533 26.0772 126.504 26.0467C126.568 26.0452 126.594 26.0792 126.591 26.1387Z" fill="#FDFEFD"/>
    <path d="M113.282 21.6451C113.282 21.6451 113.286 21.6421 113.287 21.6421L113.282 21.6301L113.282 21.6451Z" fill="#FDFEFD"/>
    <path d="M113.387 26.0422C113.374 25.9861 113.391 25.9436 113.444 25.9165C113.458 25.973 113.442 26.0157 113.387 26.0422Z" fill="#FDFEFD"/>
    <path d="M113.573 25.5084C113.555 25.4678 113.564 25.4393 113.611 25.4288C113.632 25.4708 113.618 25.4969 113.573 25.5084Z" fill="#FDFEFD"/>
    <path d="M84.9876 26.8559L84.9916 26.8319L85.0149 26.8339L85.0097 26.8554L84.9876 26.8559Z" fill="#FDFEFD"/>
    <path d="M65.0244 28.898L65.0264 28.8764C65.0264 28.8764 65.0481 28.8759 65.0481 28.8764C65.0481 28.8769 65.0244 28.898 65.0244 28.898Z" fill="#FDFEFD"/>
    <path d="M90.3918 11.8849L90.3641 11.8949L90.3661 11.8699L90.3918 11.8849Z" fill="#FDFEFD"/>
    <path d="M100.758 22.3927C100.787 22.4898 100.817 22.5871 100.847 22.6837C100.774 22.7704 100.772 22.8435 100.89 22.8926C100.901 23.0078 100.912 23.1217 100.923 23.2369C100.732 23.2269 100.475 23.31 100.478 22.9886C100.48 22.7572 100.343 22.4412 100.758 22.3927Z" fill="#FDFEFD"/>
    <path d="M100.847 22.6837C100.774 22.7704 100.772 22.8435 100.89 22.8926C100.973 22.8034 100.971 22.7318 100.847 22.6837Z" fill="#FDFEFD"/>
    <path d="M19.558 17.351C19.3505 16.8773 19.0757 16.4617 18.7313 16.1067C17.7566 15.1026 16.5325 14.8693 15.9376 14.7571C15.4871 14.6725 14.7907 14.5924 13.9317 14.7035C10.7834 14.9995 7.63567 15.2954 4.48792 15.5914C4.41268 15.6024 4.34299 15.6194 4.27834 15.6425C4.06624 15.692 3.86272 15.7852 3.67687 15.9554C3.59809 16.028 3.44861 16.0721 3.34154 16.0576C3.09712 16.025 3.03096 16.1597 2.9744 16.3455C2.83855 16.7932 2.7431 17.2524 2.63604 17.7051C2.56635 17.9995 2.45171 18.3896 2.81784 18.6485C2.92743 18.7261 2.81835 18.8283 2.77138 18.8788C2.26789 19.4196 2.30324 20.7441 2.28203 21.4041C2.27496 21.63 2.40525 21.8493 2.4007 22.0947C2.39515 22.3781 2.43353 22.5584 2.53857 22.665L2.0886 24.7792C2.06386 24.7757 2.03962 24.7722 2.01538 24.7697C1.73005 24.7356 1.63106 24.8703 1.60127 25.1192C1.56895 25.3841 1.50279 25.6465 1.49016 25.9124C1.46087 26.5404 1.29927 27.1453 1.17251 27.7542C1.05232 28.3306 1.07504 28.9295 0.927579 29.4893C0.751329 30.1568 0.701334 30.8413 0.565485 31.5123C0.488218 31.8939 0.451352 32.287 0.407416 32.6796L-0.991472 39.253C-1.05359 39.7197 -0.769266 40.0226 -0.369801 39.9986L7.98464 39.4919C9.47443 39.4017 11.0915 39.1614 12.5474 38.5029C15.2594 37.3411 17.2006 34.3741 17.5516 31.7182C17.8839 29.2049 17.292 27.9585 15.9371 26.7587L17.0097 25.7321C17.9177 24.8578 18.6637 23.8508 19.147 22.6465L19.1879 22.6084L19.1929 22.5724C19.7742 20.8989 20.2211 18.8778 19.558 17.351ZM9.24364 35.902C8.66388 35.7647 8.28664 35.3576 8.29472 34.9615C8.29623 34.8859 8.31441 34.7006 8.49218 34.4913C8.70428 34.3666 8.91588 34.2415 9.12748 34.1163C9.179 34.0892 9.23051 34.0627 9.28252 34.0356C9.31838 34.0336 9.35979 33.9951 9.43706 33.9555L9.44968 34.1323C9.39363 34.1473 9.36888 34.1718 9.35727 34.1934C9.29969 34.296 9.44059 34.5068 9.70421 34.7262C9.55068 35.1183 9.39666 35.5104 9.24364 35.902ZM10.6284 33.0051C10.2456 33.4027 9.59008 33.5314 8.29421 33.7722C7.36751 33.9445 6.58121 34.0251 6.01205 34.0662L6.8024 30.2109C7.18722 30.0857 7.71698 29.936 8.35885 29.8218C9.61381 29.5985 10.241 29.4868 10.6642 29.7913C11.451 30.3581 11.4556 32.1448 10.6284 33.0051ZM11.9662 29.8133L11.8939 29.8173L11.9177 29.638L11.9899 29.6335L11.9662 29.8133ZM12.3873 24.0176C12.0045 24.4152 11.349 24.5439 10.0537 24.7847C9.12698 24.957 8.34017 25.0376 7.77102 25.0787L8.56136 21.2234C8.94618 21.0982 9.47594 20.9479 10.1178 20.8338C11.3728 20.6109 12 20.4993 12.4232 20.8037C12.4237 20.8042 12.4247 20.8047 12.4252 20.8052C12.4586 20.8243 12.4979 20.8483 12.5348 20.8753C12.5964 20.9214 12.659 21.0065 12.7161 21.1212C13.1939 21.8693 13.0949 23.282 12.3873 24.0176ZM9.18051 33.4838C9.20122 33.4793 9.2199 33.4593 9.23505 33.4317C9.20071 33.4412 9.16586 33.4503 9.13051 33.4598C9.14516 33.4753 9.16031 33.4878 9.18051 33.4838ZM8.90023 33.5684C8.93255 33.5549 8.95325 33.5284 8.97042 33.5008C8.90275 33.5184 8.83306 33.5359 8.76084 33.5534C8.80478 33.578 8.85831 33.586 8.90023 33.5684Z" fill="#FA6E06"/>
    <path d="M47.7151 30.0437C47.7151 30.0437 47.6743 30.0817 47.7055 30.1147L47.7419 30.1122L47.754 30.0182C47.7504 30.0417 47.7464 30.0422 47.7151 30.0437Z" fill="#FA6E06"/>
    <path d="M55.3706 11.8864L53.7849 12.0136C53.7839 12.0081 53.7829 12.0031 53.7824 11.9981C53.7707 11.8614 53.6793 11.8454 53.5576 11.8419C53.2652 11.8338 52.9703 11.8494 52.6779 11.8574C52.488 11.8629 52.233 11.8579 52.1214 12.0932C52.088 12.1633 52.0113 12.1198 51.9739 12.1017C51.576 11.909 51.1603 12.0206 50.7518 12.1052C50.6119 12.1343 50.4937 12.2364 50.3427 12.27C50.3013 12.279 50.2639 12.2885 50.2301 12.299L48.6444 12.4262C48.6206 12.2895 48.5272 12.2605 48.3792 12.2795C48.2121 12.301 48.0419 12.303 47.8767 12.3351C47.4869 12.4107 47.094 12.4117 46.7031 12.4322C46.3329 12.4513 45.9678 12.5509 45.6047 12.5529C45.1714 12.5554 44.7436 12.628 44.3139 12.6526C43.876 12.6776 43.4331 12.7773 42.9907 12.7958C42.6266 12.8108 42.262 12.9215 41.8943 12.8434C41.8201 12.8278 41.7055 12.8529 41.6297 12.928C41.609 12.949 41.5898 12.9711 41.5711 12.9936L39.2521 13.1799C38.7819 13.244 38.539 13.4693 38.4426 13.9315L37.5214 19.2881C37.4558 19.7838 37.8078 20.0782 38.2875 19.9435L42.0676 19.0332C42.0362 19.1839 42.063 19.3306 42.1569 19.4693C42.2908 19.6666 42.5064 19.6566 42.7089 19.6216C42.9402 19.582 43.069 19.4102 43.0847 19.1964C43.0973 19.0257 43.218 18.8804 43.2119 18.7573L43.3498 18.7242L42.8715 21.7077C42.8523 21.6932 42.8332 21.6782 42.814 21.6626C42.7215 21.588 42.5599 22.0702 42.4509 22.6176C42.2923 23.4133 41.9787 24.3737 42.0655 24.931C42.11 25.215 42.1872 25.3622 42.2792 25.4043L42.1342 26.3101C42.2105 26.2706 42.2822 26.2661 42.3494 26.2971L42.3398 26.3677C42.3352 26.4033 42.2994 26.4053 42.2635 26.4078L42.1297 26.3457L41.4115 30.7067L41.4469 30.7047C41.4469 30.7047 41.4115 30.7067 41.407 30.7428L40.5151 36.4133C40.3919 36.8069 40.7389 37.1369 41.1333 37.1129L46.0168 36.7113C46.4511 36.6497 46.7298 36.4223 46.791 35.9627L46.8591 35.7123L46.8233 35.7148C46.6445 35.7253 46.5339 35.4864 46.543 35.4158C46.5475 35.3803 46.593 35.3072 46.6783 35.197C46.7596 35.1219 46.8046 35.0488 46.8142 34.9782C46.8187 34.9426 46.7879 34.9096 46.7253 34.843C46.6632 34.7764 46.6364 34.7078 46.641 34.6722C46.6511 34.6016 46.7768 34.4534 46.7768 34.4534C46.7864 34.3828 46.8005 34.2766 46.7783 34.1725C46.7521 34.1039 46.7612 34.0332 46.7753 33.9271C46.7798 33.8915 46.8157 33.8895 46.8566 33.8525C46.892 33.85 46.8965 33.8144 46.9728 33.7749C46.9061 33.7438 46.8389 33.7128 46.8485 33.6422C46.8172 33.6086 46.791 33.54 46.8005 33.4694C46.948 33.4253 47.0293 33.3502 47.0384 33.2796C47.0429 33.2441 47.0167 33.1755 46.8874 33.0778C46.8925 33.0423 46.9687 33.0027 47.1162 32.9586C47.2288 32.9166 47.3096 32.8414 47.247 32.7748L47.1495 32.7108C47.1131 32.7133 47.0414 32.7178 46.9748 32.6862C46.9839 32.6156 47.0293 32.5425 47.0748 32.4699C47.1147 32.4323 47.1601 32.3592 47.1647 32.3237L47.1743 32.2531C47.1379 32.2551 47.1071 32.222 47.0717 32.2245C46.9642 32.231 46.9233 32.2681 46.8879 32.2701C46.8516 32.2726 46.8162 32.2746 46.8253 32.204L46.8349 32.1329L46.8707 32.1309C46.8753 32.0958 46.9111 32.0938 46.9111 32.0938C46.9874 32.0538 47.0586 32.0493 47.1303 32.0453C47.202 32.0407 47.2783 32.0007 47.3283 31.8925C47.3904 31.9591 47.4167 32.0277 47.4167 32.0277L47.4808 31.8134L47.2662 31.8264C47.1586 31.8324 47.1364 31.7288 47.196 31.5495C47.2414 31.4769 47.2505 31.4058 47.2243 31.3372L47.1667 31.2355C47.1758 31.1649 47.145 31.1314 47.1495 31.0963C47.154 31.0608 47.1945 31.0232 47.2753 30.9476C47.3566 30.8725 47.4015 30.7999 47.4061 30.7648L47.3768 30.4504L47.3162 30.1028C47.3207 30.0678 47.3616 30.0297 47.3662 29.9947L47.4015 29.9927L47.4828 29.9176L47.497 29.8109C47.5065 29.7403 47.4843 29.6366 47.4273 29.5345C47.4626 29.5325 47.5389 29.4929 47.6151 29.4529C47.6868 29.4488 47.7272 29.4113 47.7677 29.3737L47.8752 29.3672L48.0232 28.5154L47.9873 28.5179C47.8803 28.524 47.8848 28.4889 47.751 28.4268C47.8363 28.3161 47.953 28.239 48.0606 28.2325L49.722 17.8108L54.6151 17.3381C55.0494 17.277 55.2918 17.0517 55.3888 16.589L56.0246 12.584C56.0807 12.1593 55.8004 11.8599 55.3706 11.8864ZM38.2709 17.3822L37.9482 17.4017L37.9623 17.2956L38.2845 17.276L38.2709 17.3822ZM39.6172 18.2134L39.6309 18.1078C39.6874 18.1403 39.746 18.1719 39.8066 18.2014L39.6172 18.2134ZM41.9635 34.3242C41.8514 34.3662 41.7752 34.4063 41.8327 34.508C41.8186 34.6141 41.7686 34.7223 41.6832 34.8329C41.6115 34.8375 41.5353 34.877 41.4994 34.879C41.4105 34.7438 41.3575 34.6066 41.3626 34.5716C41.2954 34.54 41.3045 34.4694 41.3191 34.3637C41.3237 34.3277 41.359 34.3257 41.3954 34.3237C41.4307 34.3217 41.4403 34.2506 41.3823 34.1489C41.4232 34.1114 41.4277 34.0763 41.4328 34.0403C41.4328 34.0403 41.4732 34.0032 41.4777 33.9676C41.4873 33.8965 41.5055 33.7553 41.5696 33.5405C41.5787 33.4699 41.5838 33.4348 41.5524 33.4013C41.5257 33.3327 41.5358 33.2621 41.5403 33.227C41.5136 33.1584 41.7661 32.862 41.8822 32.7849C41.9186 32.7824 41.914 32.8179 41.9807 32.8485C42.0165 32.8465 42.0479 32.88 42.0832 32.878L41.9635 34.3242ZM42.4559 30.3277C42.411 30.4008 42.4327 30.5044 42.4231 30.575C42.4095 30.6817 42.4307 30.7854 42.4478 30.9251L42.5276 31.1309C42.513 31.237 42.4685 31.3102 42.316 31.3893C42.316 31.3893 42.3468 31.4223 42.3822 31.4203C42.3453 31.7032 42.3529 31.9136 42.2984 32.0573C42.2489 32.1659 42.2342 32.2716 42.368 32.3337C42.2827 32.4449 42.2428 32.4819 42.1347 32.4884C42.166 32.522 42.161 32.557 42.2282 32.5886C42.264 32.5861 42.2953 32.6191 42.2903 32.6547L42.2504 32.6922C42.2095 32.7298 42.1741 32.7323 42.1378 32.7343C42.1024 32.7363 42.0307 32.7408 41.8923 32.7143C41.861 32.6807 41.7893 32.6852 41.7585 32.6522C41.7221 32.6542 41.6868 32.6562 41.6555 32.6226C41.6742 32.4814 41.7287 32.3377 41.7423 32.2315L41.9171 31.4489C41.9767 31.2696 41.9903 31.1629 41.9595 31.1299L41.9918 30.8825C42.1181 30.7343 42.1675 30.6261 42.1777 30.5555C42.1822 30.5195 42.1509 30.4869 42.0883 30.4203C42.0216 30.3888 41.9953 30.3207 41.9953 30.3207C42.0044 30.25 42.0403 30.2475 42.0807 30.21L42.2024 30.0973C42.1716 30.0643 42.1398 30.0307 42.1494 29.9601C42.1539 29.9246 42.1585 29.889 42.1948 29.887L42.2443 29.7788C42.2059 29.5951 42.2655 29.4173 42.365 29.2425C42.4423 29.4213 42.5499 29.565 42.6857 29.6597C42.6625 29.7793 42.5155 30.1149 42.4079 30.1549C42.4387 30.1885 42.4701 30.2215 42.4559 30.3277ZM46.5566 28.3237C46.5566 28.3237 46.5258 28.2906 46.4895 28.2926L46.4991 28.222L46.7142 28.209C46.66 28.2591 46.6211 28.2848 46.5975 28.2861C46.5612 28.2886 46.5566 28.3237 46.5566 28.3237ZM46.7707 31.5405L46.6324 31.5135L46.647 31.4073C46.6778 31.4403 46.7132 31.4383 46.7495 31.4363L46.8571 31.4298C46.8504 31.4769 46.8216 31.5138 46.7707 31.5405Z" fill="#FA6E06"/>
    <path d="M51.6002 18.6641C51.4648 18.2264 50.7315 18.1934 50.5927 18.1874C50.2937 18.1739 49.8341 18.2325 49.8306 18.4207C49.8276 18.5645 50.0897 18.8083 50.3306 18.8799C50.4962 18.929 50.6033 18.8839 50.6558 18.9816C50.6982 19.0612 50.6846 19.1934 50.6265 19.4012C50.5386 19.7167 50.6563 20.0417 50.8735 20.0302C51.3063 20.0071 51.5285 20.0527 51.5961 19.8724C51.632 19.7768 51.5926 19.7332 51.5769 19.4458C51.5497 18.941 51.6593 18.8539 51.6002 18.6641Z" fill="#FA6E06"/>
    <path d="M37.3799 12.9244L33.4994 13.335C33.4691 13.2504 33.3893 13.2379 33.2873 13.2349C32.9944 13.2269 32.6995 13.2424 32.4076 13.2504C32.2172 13.2559 31.9627 13.2504 31.8511 13.4858C31.845 13.4978 31.8379 13.5053 31.8303 13.5113L31.7596 13.5188C31.7384 13.5123 31.7177 13.5013 31.7031 13.4943C31.3051 13.302 30.8895 13.4137 30.481 13.4983C30.3411 13.5273 30.2234 13.6295 30.0719 13.663C29.9987 13.6791 29.9376 13.6966 29.8876 13.7171L28.3796 13.8764C28.3796 13.8658 28.3781 13.8553 28.3771 13.8448C28.3609 13.6861 28.2655 13.6525 28.1084 13.6725C27.9412 13.6936 27.771 13.6961 27.6064 13.7281C27.2165 13.8037 26.8231 13.8047 26.4323 13.8253C26.0626 13.8443 25.697 13.944 25.3339 13.946C24.9006 13.948 24.4733 14.0211 24.043 14.0456C23.6052 14.0706 23.1623 14.1703 22.7204 14.1888C22.3558 14.2038 21.9917 14.314 21.624 14.2364C21.5498 14.2209 21.4351 14.2454 21.3594 14.321C20.9877 14.6901 21.0104 15.3996 21.4094 15.7006C21.4927 15.7637 21.5569 15.8358 21.6018 15.9189C21.5665 16.0732 21.5316 16.2274 21.4963 16.3816C21.4104 16.4192 21.4341 16.7016 21.1998 16.8924C21.017 17.0411 20.8817 16.967 20.7842 17.1032C20.7069 17.2109 20.7493 17.3982 20.8362 17.7677C20.9104 18.0822 20.9493 18.2414 21.0529 18.3566C20.4226 21.2109 19.8408 24.0677 19.3318 26.938C18.652 30.7357 18.0632 34.3872 17.5693 37.8579C17.5248 38.1919 17.6637 38.4218 17.9076 38.5129C18.0167 38.6261 18.4743 38.7538 18.9091 38.6712C19.2601 38.6046 19.3974 38.4388 19.7974 38.4478C20.0302 38.4533 20.0746 38.5114 20.213 38.4739C20.3135 38.4463 20.4064 38.3832 20.4862 38.3026L21.0837 38.236C21.0927 38.2515 21.1008 38.2666 21.1109 38.2821C21.1584 38.3552 21.2235 38.4058 21.322 38.4003C21.7972 38.3747 22.2709 38.3131 22.7441 38.243C22.8265 38.2175 22.9088 38.1884 22.9951 38.2065C23.183 38.1829 23.3719 38.1594 23.5613 38.1359C23.5759 38.1319 23.5911 38.1273 23.6057 38.1228C23.6284 38.1163 23.6506 38.1098 23.6729 38.1038C23.6794 38.1018 23.6865 38.1023 23.6936 38.1018C23.6926 38.1053 23.691 38.1088 23.689 38.1123C23.8158 38.0963 23.943 38.0798 24.0698 38.0637C24.0683 38.0612 24.0663 38.0587 24.0642 38.0562C24.0698 38.0572 24.0754 38.0587 24.0804 38.0597C24.2779 38.0392 24.4753 38.0172 24.6733 37.9982C25.1026 37.9566 25.5333 37.9245 25.9621 37.8715C26.1479 37.8484 26.2201 37.8499 26.2621 37.9386C26.6156 37.9115 26.9676 37.8895 27.3211 37.8705C27.3494 37.8289 27.4074 37.7994 27.464 37.7838C27.6221 37.7398 27.7857 37.6937 27.9468 37.6837C28.526 37.6481 29.1007 37.554 29.6765 37.4769C30.1577 37.4128 30.64 37.3842 31.1213 37.3246C31.4147 37.2886 31.7132 37.255 32.0101 37.232C32.4141 37.2005 32.8182 37.1248 33.2217 37.0978C33.5878 37.0733 33.6332 37.0677 33.5767 36.8259C33.9327 36.7257 34.1251 36.4809 34.1736 36.1133L34.763 31.6541C34.8145 31.265 34.5342 30.9661 34.1044 30.9921L24.5071 31.8549L24.5622 31.566C24.5016 31.4783 24.4743 31.3296 24.4864 31.1724C24.5157 30.7928 24.3582 30.3236 24.691 30.0777C24.7501 30.0337 24.8102 29.9986 24.8697 29.9706L24.9899 29.3446C25.0425 29.238 25.0718 29.1223 25.0718 29.0016C25.0718 28.9796 25.0702 28.9575 25.0687 28.936L25.0743 28.907L28.9321 28.1804C28.9316 28.2254 28.9119 28.2855 28.8755 28.3657C28.7912 28.5509 28.872 28.7332 29.0477 28.7172C29.2472 28.6992 29.4598 28.6781 29.6376 28.5955C29.9502 28.4508 30.2426 28.2635 30.6022 28.2555C30.6996 28.2535 30.7567 28.1864 30.8289 28.1388C31.0269 28.0071 31.2132 27.8574 31.4041 27.7152L33.0515 27.4047C33.4545 27.3106 33.7019 27.0497 33.7534 26.6606L34.2398 22.9796C34.2913 22.591 33.9751 22.294 33.5817 22.3176L33.1232 25.7858L32.9798 25.7943L33.4383 22.3266L26.0111 23.1633L26.6494 20.2109L36.6315 18.5869C37.0663 18.5259 37.3138 18.2645 37.4052 17.8378L38.0698 13.62C38.1258 13.1953 37.8456 12.8964 37.3799 12.9244ZM18.3147 36.5134L18.553 36.4989C18.5616 36.5249 18.5702 36.551 18.5793 36.5765C18.4687 36.6136 18.3445 36.6196 18.3147 36.5134ZM22.5795 17.6841L22.5123 17.6535L22.5886 17.6135L22.6239 17.6115L22.5795 17.6841ZM29.0977 32.5945L29.129 32.6276L29.0856 32.6977C29.072 32.6862 29.0578 32.6751 29.0437 32.6641L29.0977 32.5945ZM33.0424 25.8609C33.0909 26.0336 33.1121 26.1373 33.1434 26.1709L33.1823 26.4142C33.1777 26.4498 33.1368 26.4868 33.0919 26.5599C33.056 26.5935 33.0202 26.627 32.953 26.7107C32.9449 26.7117 32.9373 26.7122 32.9298 26.7132L33.0424 25.8609ZM29.8573 19.2434C29.3942 19.5239 28.8801 19.5324 28.373 19.5779C28.2008 19.5935 28.1145 19.4457 28.1347 19.283C28.1634 19.0461 28.0059 18.7527 28.3392 18.5995C28.571 18.4923 28.8109 18.4618 29.0139 18.4828C29.3108 18.4693 29.5431 18.5173 29.7744 18.619C29.9017 18.6756 30.0684 18.6465 30.0577 18.8589C30.0497 19.0196 30.0325 19.1383 29.8573 19.2434ZM35.3624 14.4868L35.2907 14.4913L35.3048 14.3846L35.3766 14.3806L35.3624 14.4868Z" fill="#FA6E06"/>
    <path d="M21.1892 38.5976C21.0034 38.4664 20.8902 38.3862 20.7549 38.4028C20.6155 38.4193 20.6029 38.52 20.3681 38.7158C20.0903 38.9477 19.9115 38.9707 19.9211 39.0704C19.9312 39.1746 20.1277 39.1675 20.3681 39.3559C20.613 39.5477 20.5741 39.6844 20.7549 39.7375C20.963 39.7991 21.2695 39.6934 21.3246 39.5492C21.3811 39.4019 21.1554 39.2702 21.2306 39.1705C21.3013 39.0774 21.5296 39.1525 21.5882 39.0704C21.6781 38.9437 21.2367 38.6322 21.1882 38.5981L21.1892 38.5976Z" fill="#FA6E06"/>
    <path d="M9.30414 33.2004C9.3006 33.2199 9.27747 33.3551 9.23505 33.4317C9.2199 33.4593 9.20122 33.4793 9.18051 33.4838C9.16031 33.4878 9.14516 33.4753 9.13051 33.4598C9.0785 33.4733 9.02497 33.4873 8.97042 33.5008C8.95325 33.5284 8.93255 33.5549 8.90023 33.5684C8.85831 33.586 8.80478 33.578 8.76084 33.5534C8.72246 33.5324 8.69105 33.4994 8.68196 33.4604C8.66479 33.3872 8.736 33.3522 8.76731 33.2119C8.79761 33.0742 8.74913 33.0171 8.79458 32.9785C8.83801 32.9415 8.88952 32.9876 9.06022 32.9921C9.20415 32.9961 9.25313 32.9655 9.29303 33.0021C9.33141 33.0371 9.32131 33.0992 9.30414 33.2004Z" fill="#27272F"/>
    <path d="M9.30414 33.2004C9.3006 33.2199 9.27747 33.3551 9.23505 33.4317C9.2199 33.4593 9.20122 33.4793 9.18051 33.4838C9.16031 33.4878 9.14516 33.4753 9.13051 33.4598C9.10829 33.4357 9.08698 33.4038 9.05163 33.4098C9.01426 33.4168 8.99618 33.4598 8.97042 33.5008C8.95325 33.5284 8.93255 33.5549 8.90023 33.5684C8.85831 33.586 8.80478 33.578 8.76084 33.5534C8.72246 33.5324 8.69105 33.4994 8.68196 33.4604C8.66479 33.3872 8.736 33.3522 8.76731 33.2119C8.79761 33.0742 8.74913 33.0171 8.79458 32.9785C8.83801 32.9415 8.88952 32.9876 9.06022 32.9921C9.20415 32.9961 9.25313 32.9655 9.29303 33.0021C9.33141 33.0371 9.32131 33.0992 9.30414 33.2004Z" fill="#FA6E06"/>
</svg>
