<svg width="254" height="59" viewBox="0 0 254 59" fill="none" xmlns="http://www.w3.org/2000/svg">
<path d="M63.8274 29.3559C63.6959 20.9714 70.402 13.8786 80.0395 14.0101C82.5069 14.0101 84.6185 14.3118 86.3975 14.9615C88.2152 15.5648 89.5533 16.1294 90.3732 16.6477V21.6598C89.5919 21.0101 88.3389 20.3217 86.5677 19.5869C84.7964 18.8057 82.6307 18.4189 80.0395 18.4189C72.9081 18.4189 68.7158 23.2145 68.7158 29.3559C68.7158 35.4509 73.0782 40.2929 79.266 40.2929C82.6848 40.2929 85.4925 38.9548 87.2174 37.6553V31.2973H78.4384V26.8885H91.9278V44.052H87.2174V42.536C85.4848 43.6188 82.7235 44.694 79.266 44.694C70.1777 44.7017 63.6959 37.7404 63.8274 29.3559Z" fill="white"/>
<path d="M95.6384 32.8941C95.6384 26.3659 100.48 21.0521 107.31 21.0521C110.551 21.0521 113.274 22.3052 114.828 23.8598V21.7018H119.454V44.0476H114.743L114.79 41.7581C113.32 43.2741 110.946 44.6973 107.31 44.6973C100.48 44.6973 95.6384 39.4222 95.6384 32.8941ZM115.091 32.8554C115.091 28.0134 111.804 25.2057 107.658 25.2057C103.466 25.2057 100.31 28.6245 100.31 32.8554C100.31 37.094 103.466 40.5515 107.658 40.5515C111.804 40.5515 115.091 37.736 115.091 32.8554Z" fill="white"/>
<path d="M159.313 30.3069V44.0516H154.641V30.7788C154.641 27.1898 153.342 25.1556 150.279 25.1556C147.471 25.1556 144.656 27.2749 144.656 31.4671V44.0439H139.984V30.771C139.984 27.1821 138.684 25.1478 135.621 25.1478C133.03 25.1478 130.393 26.9655 130.045 30.5931V44.0362H125.373V21.6904H130.045V24.3744C130.308 23.7711 131.816 21.002 136.31 21.002C139.466 21.002 141.933 22.255 143.356 24.676C144.393 22.7346 146.729 21.002 150.967 21.002C155.987 21.0097 159.313 24.1655 159.313 30.3069Z" fill="white"/>
<path d="M162.769 32.8977C162.769 26.3696 167.611 21.0558 174.441 21.0558C177.682 21.0558 180.405 22.3088 181.959 23.8635V14.6978L186.631 13.9166V44.0435H181.874L181.921 41.754C180.451 43.27 178.077 44.6932 174.441 44.6932C167.611 44.701 162.769 39.4259 162.769 32.8977ZM182.222 32.859C182.222 28.0171 178.935 25.2093 174.789 25.2093C170.597 25.2093 167.31 28.6281 167.31 32.859C167.31 37.0977 170.597 40.5551 174.789 40.5551C178.935 40.5551 182.222 37.7397 182.222 32.859Z" fill="white"/>
<path d="M190.524 32.8941C190.524 26.3659 195.969 21.0521 202.76 21.0521C209.544 21.0521 214.997 26.3659 214.997 32.8941C214.997 39.4222 209.552 44.6973 202.76 44.6973C195.969 44.6973 190.524 39.4222 190.524 32.8941ZM210.495 32.8941C210.495 28.6554 207.169 25.2444 202.76 25.2444C198.352 25.2444 195.026 28.6631 195.026 32.8941C195.026 37.0863 198.352 40.5051 202.76 40.5051C207.169 40.5051 210.495 37.094 210.495 32.8941Z" fill="white"/>
<path d="M253.075 30.3069V44.0516H248.403V30.7788C248.403 27.1898 247.104 25.1556 244.041 25.1556C241.233 25.1556 238.418 27.2749 238.418 31.4671V44.0439H233.746V30.771C233.746 27.1821 232.446 25.1478 229.383 25.1478C226.792 25.1478 224.155 26.9655 223.807 30.5931V44.0362H219.143V21.6904H223.814V24.3744C224.077 23.7711 225.586 21.002 230.08 21.002C233.235 21.002 235.703 22.255 237.126 24.676C238.162 22.7346 240.498 21.002 244.737 21.002C249.749 21.0097 253.075 24.1655 253.075 30.3069Z" fill="white"/>
<path d="M23.4758 36.6956H23.4681V51.2756H23.4758V36.6956Z" fill="#01D370"/>
<path d="M23.4758 36.6956H23.4681V51.2756H23.4758V36.6956Z" fill="#01D370"/>
<path d="M22.2819 29.238L7.69412 36.1374C7.26097 36.3463 6.98252 36.7949 6.98252 37.2821V50.6788C6.98252 51.1738 7.26097 51.6147 7.69412 51.8235L22.2896 58.7307C22.6609 58.9086 23.0631 58.9937 23.4653 58.9937V28.9673C23.0631 28.975 22.6609 29.0678 22.2819 29.238Z" fill="#00FF86"/>
<path d="M22.8176 0.154693L15.9723 3.54253V12.6463L7.95908 16.5756V7.39444L0.781214 10.9602C0.301658 11.1999 0 11.6872 0 12.2132V29.7557C0 30.7844 1.0906 31.4651 2.01104 31.0087L22.222 21.0927C22.6165 20.8993 23.0419 20.8065 23.4673 20.8065V0C23.243 0 23.0187 0.0541411 22.8176 0.154693Z" fill="#00FF86"/>
<path d="M39.247 36.1365L24.6515 29.2371C24.2725 29.0514 23.8703 28.9663 23.4681 28.9741V59.0005C23.8703 59.0005 24.288 58.9154 24.6592 58.7375L39.247 51.8303C39.6802 51.6215 39.9586 51.1729 39.9586 50.6856V37.289C39.9586 36.7939 39.6802 36.3453 39.247 36.1365Z" fill="#01D370"/>
<path d="M46.1619 10.9588L38.984 7.39303V16.5819L30.9631 12.6527V3.54885L24.1178 0.161015C23.9167 0.060463 23.6847 0.00632193 23.4681 0.00632193V20.8129C23.8935 20.8129 24.3189 20.9134 24.7134 21.0991L44.9243 31.015C45.8525 31.4714 46.9354 30.7907 46.9354 29.762V12.2195C46.9431 11.6858 46.6415 11.1985 46.1619 10.9588Z" fill="#01D370"/>
</svg>
