<svg width="308" height="34" viewBox="0 0 308 34" fill="none" xmlns="http://www.w3.org/2000/svg">
<g filter="url(#filter0_d_339_7112)">
<path fill-rule="evenodd" clip-rule="evenodd" d="M250.533 0C243.325 0 239.871 1.3086 237.202 3.37044C233.985 5.85358 231.815 10.1049 231.815 16.0032H243.83C243.83 9.77299 246.661 6.90684 250.533 6.90684C254.411 6.90684 257.242 9.77299 257.242 16.0032H269.257C269.257 6.90684 264.212 0 250.533 0ZM27.0853 12.0455V0.791542H38.8696V15.9968H35.2283V31.1957H23.444V19.4502H11.7843V31.1957H0V16.0032H3.63506V0.791542H15.4194V12.0391H27.079L27.0853 12.0455ZM68.9851 0.791542L62.8186 13.3413L57.0075 0.797925H42.3176L52.1067 16.0032H48.4717L52.3998 22.1057V31.2021H64.1841V22.1121L68.1122 16.0096H71.7535L81.5426 0.804309H68.9789L68.9851 0.791542ZM153.945 0.791542H168.946C177.202 0.791542 182.545 1.59585 186.386 5.8089C188.362 7.9984 189.734 11.5667 189.784 15.9968H186.155L186.161 16.2521C186.161 20.7141 184.808 25.0485 182.364 27.155C179.072 30.0148 175.967 31.1957 167.325 31.1957H150.31V16.0032H153.945V0.791542ZM132.783 7.1941H148.208V0.804309H121.385V15.9968H117.75V31.2021H144.729V24.8059H129.141V19.2013H143.607V16.0032H147.236V12.8051H132.783V7.1941ZM227.394 9.17295C227.394 2.43846 222.668 0.797925 215.03 0.797925H195.109V15.9904H222.699C225.474 14.9882 227.394 12.6391 227.394 9.17295ZM84.9906 0.804309H104.949C111.696 0.804309 116.422 3.45342 116.422 11.3688C116.422 13.1945 116.147 14.7265 115.649 16.0032H84.9844L84.9906 0.804309ZM306 11.3688C306 3.45342 301.274 0.804309 294.527 0.804309H274.569V15.9968H305.221C305.719 14.7201 306 13.1881 306 11.3688ZM211.389 14.2733H206.893V6.95153H211.195C214.063 6.95153 215.847 7.87712 215.847 10.5709C215.847 13.4307 213.908 14.2733 211.389 14.2733ZM96.775 15.0393H99.1755C103.359 15.0393 104.874 14.018 104.874 11.0369C104.874 8.50908 103.715 7.20686 100.341 7.20686H96.775V15.0393ZM288.754 15.0393H286.347V7.1941H289.913C293.287 7.1941 294.446 8.50269 294.446 11.0241C294.446 14.018 292.937 15.0265 288.754 15.0265V15.0393ZM162.094 16.0032V24.3016H165.349C170.698 24.3016 173.916 21.6844 173.916 16.0032H177.551C177.551 10.322 174.333 7.70477 168.984 7.70477H165.729V16.0032H162.094ZM93.1399 31.2021H81.3556V16.0032H112.014C110.473 19.9226 106.807 21.4291 102.362 21.4291H93.1399V31.2021ZM191.474 31.2021H203.258V20.1716H206.825C210.852 20.1716 211.357 20.6758 211.9 24.4229L212.873 31.2021H224.657L223.142 21.0142C222.674 17.9374 220.429 16.8841 217.717 16.8011V16.3798C218.185 16.2904 218.634 16.1564 219.064 15.9968H191.48L191.474 31.2021ZM270.934 16.0032V31.2021H282.718V21.4355H291.94C296.379 21.4355 300.045 19.9226 301.586 16.0032H270.934ZM240.195 16.0032C240.195 22.2334 243.025 25.0995 246.904 25.0995C250.776 25.0995 253.606 22.2334 253.606 16.0032H265.615C265.615 20.6758 264.293 24.3399 261.974 26.7401C258.95 29.8999 254.105 32 246.897 32C233.211 32 228.173 25.0995 228.173 16.0032H240.195Z" fill="#EBECF3"/>
</g>
<defs>
<filter id="filter0_d_339_7112" x="0" y="0" width="308" height="34" filterUnits="userSpaceOnUse" color-interpolation-filters="sRGB">
<feFlood flood-opacity="0" result="BackgroundImageFix"/>
<feColorMatrix in="SourceAlpha" type="matrix" values="0 0 0 0 0 0 0 0 0 0 0 0 0 0 0 0 0 0 127 0" result="hardAlpha"/>
<feOffset dx="2" dy="2"/>
<feComposite in2="hardAlpha" operator="out"/>
<feColorMatrix type="matrix" values="0 0 0 0 0 0 0 0 0 0 0 0 0 0 0 0 0 0 0.15 0"/>
<feBlend mode="normal" in2="BackgroundImageFix" result="effect1_dropShadow_339_7112"/>
<feBlend mode="normal" in="SourceGraphic" in2="effect1_dropShadow_339_7112" result="shape"/>
</filter>
</defs>
</svg>
