<svg width="230" height="76" viewBox="0 0 230 76" fill="none" xmlns="http://www.w3.org/2000/svg">
<g filter="url(#filter0_d_339_7079)">
<path fill-rule="evenodd" clip-rule="evenodd" d="M193.852 0L188.086 3.27148L185.813 7.28522L179.215 1.2921L173.643 2.58419L170.899 6.87285L164.496 5.19588L159.7 9.04467L157.953 7.23024L139.464 3.95876L111.549 5.00344L99.407 6.46048L90.6472 7.72509L96.1359 11.9313L92.061 15.3127L87.6811 11.7113H71.3812L67.4171 14.9828H55.3586L51.4222 11.7113H34.762L30.5761 15.1753L26.3625 11.7113H10.3676L0 20.2612V43.1615L10.5894 51.9038H26.1408L28.109 50.2818C28.6079 49.8694 29.1346 49.457 29.6336 49.0172C29.6336 49.0172 30.2989 48.4674 30.5484 48.2474L34.956 51.8763H51.3945L55.1645 48.7972H67.8607L71.603 51.8763H109.22L104.036 69.1959L117.814 64.6048L132.367 46.7629L145.978 66.9966L162.86 72L158.286 60.0962L155.431 51.4364L163.165 50.6392L165.189 52.3161L180.102 51.1065L182.847 52.2062L221.407 45.4433L230 37.7182L218.08 32.9347L198.62 32.4399L207.38 17.512L207.408 11.6838L201.808 5.82818L193.852 0Z" fill="white"/>
<path fill-rule="evenodd" clip-rule="evenodd" d="M217.664 35.2685L194.711 34.6362L205.079 16.9042L205.107 12.6155L200.311 7.6121L193.686 2.8011L189.832 5.00041L186.423 11.021L178.55 3.84577L175.113 4.64302L171.897 9.67395V9.56399L165.05 7.74955L159.811 11.9557L159.534 12.2307L156.789 9.37155L139.27 6.29251L111.992 7.06227L96.5518 9.28907L101.708 14.0176H97.2725L92.061 18.3337L86.8217 14.0176H72.2128L68.2488 17.3166H54.4715L50.5351 14.0451H35.5659L30.5484 18.2238L25.5032 14.0451H11.1992L2.35627 21.3578V42.0588L11.421 49.564H25.2537L26.5566 48.4918C27.0556 48.0794 27.5823 47.6396 28.0812 47.2272L28.2476 47.0898C28.996 46.4849 29.7445 45.8526 30.5207 45.2203L35.7876 49.564H50.5351L54.3329 46.4575H68.72L72.4623 49.5365H94.9994V47.5021L97.4666 49.5365H112.824L107.751 65.8389L116.206 62.1001L131.563 43.7908L132.783 43.2135L147.392 64.3544L157.704 66.966L156.041 60.753L152.298 49.399L162.971 48.3269L163.609 47.9695L165.993 49.9214L180.518 48.7392L183.152 49.7839L220.104 43.2959L225.204 38.32L217.664 35.2685Z" fill="#161A1F"/>
<path fill-rule="evenodd" clip-rule="evenodd" d="M12.9179 18.7216L7.06882 23.5326V39.8625L13.1397 44.866H23.5627C25.3369 43.4089 27.1387 41.9519 28.9129 40.4674V35.7113H21.8718L21.1233 38.4605H15.9672L14.8307 37.5533V26.0344L15.9118 25.1821H21.1233L21.8718 27.9038H28.9129V22.9828L23.8122 18.7216H12.9179Z" fill="white"/>
<path fill-rule="evenodd" clip-rule="evenodd" d="M32.1562 30.1031L36.647 33.7869L45.684 35.2715L46.4047 35.9038V37.6632L45.4622 38.4605H39.9735L39.1973 35.7113H32.1562V40.4674L37.5063 44.866H48.8442L54.2497 40.4674V32.9897L49.8421 29.5808L40.7497 28.0962L39.918 27.4639V25.9244L40.916 25.1821H46.1552L46.9037 27.9038H53.9448V22.9828L48.8164 18.7216H37.2846L32.1562 22.9828V30.1031Z" fill="white"/>
<path fill-rule="evenodd" clip-rule="evenodd" d="M68.0824 39.8625L74.1533 44.866H81.1112L83.6061 42.8316L84.3546 44.866H90.2868V29.4158H78.9767V33.8969H82.525V37.4708L81.3607 38.4605H76.9808L75.8443 37.5533V26.0344L76.9531 25.1821H82.525L83.2735 27.9038H90.2868V22.9828L85.1308 18.7216H73.9315L68.0824 23.5326V39.8625Z" fill="white"/>
<path fill-rule="evenodd" clip-rule="evenodd" d="M98.9912 18.7216L93.4748 23.2852V40.2199L99.1575 44.8935H109.941C111.854 43.354 113.739 41.7594 115.679 40.2199V23.2852L110.163 18.7216H98.9912ZM101.237 37.5808V25.9794L102.262 25.1821H106.892L107.917 25.9794V37.6082L106.864 38.4605H102.29L101.237 37.5808Z" fill="white"/>
<path fill-rule="evenodd" clip-rule="evenodd" d="M65.144 21.9901H57.3545V29.7427H65.144V21.9901Z" fill="white"/>
<path fill-rule="evenodd" clip-rule="evenodd" d="M65.144 34.0588H57.3545V41.7839H65.144V34.0588Z" fill="white"/>
<path fill-rule="evenodd" clip-rule="evenodd" d="M157.482 38.0756L162.472 25.2371C162.472 25.2371 152.492 37.4158 152.188 37.9107C151.827 38.488 151.495 39.0653 151.19 39.6426C151.3 39.6426 157.316 38.6529 157.482 38.0756ZM134.446 28.1512L146.505 22.0756C146.505 22.0756 146.505 22.0756 146.532 22.0756C146.56 22.0206 147.198 21.2509 147.42 20.921C146.782 20.701 143.76 19.9038 138.299 18.5567C135.777 24.6873 134.502 27.8763 134.446 28.1512ZM187.338 38.6529C187.837 38.7079 215.086 39.4227 215.862 39.2852C216.195 39.2302 216.056 39.6701 215.862 39.7526C215.447 39.8625 182.653 44.756 182.209 44.4261C182.126 44.4536 181.488 43.9038 181.211 43.6838C178.273 44.3162 168.737 45.0034 168.46 45.0034C167.434 44.9759 164.69 42.8041 164.496 42.5842C164.135 42.1443 163.969 41.622 163.913 41.0997C163.886 40.8522 163.858 40.6048 163.858 40.3574C163.747 40.6598 162.306 43.3814 162.139 43.3814C161.529 43.4639 146.81 45.1684 146.172 45.2784C146.588 46.7354 151.411 60.3162 151.467 60.5361C151.495 60.5636 151.495 60.5911 151.495 60.646C151.495 60.646 151.495 60.646 151.495 60.6735C151.495 60.756 151.439 60.811 151.356 60.866C151.245 60.9485 151.106 60.9759 150.996 60.8935C150.857 60.756 136.747 39.89 134.723 36.4261C134.613 36.4261 129.928 38.2131 128.902 38.6529C128.819 38.9553 113.933 59.6838 113.766 59.6838C113.683 59.6838 113.628 59.6014 113.6 59.5464C113.517 59.4914 119.227 45.7182 130.704 18.2268L107.585 13.6632C112.38 12.6735 114.848 12.1787 115.042 12.2062C115.097 12.2062 120.697 11.9588 131.868 11.4364C149.748 13.6082 158.425 16.0275 157.953 18.7491C157.26 22.8179 143.261 31.1478 141.737 32.055C141.875 32.2199 143.705 37.6357 143.871 38.1856C144.398 37.1684 149.083 30.4055 149.249 30.268C149.443 30.1306 165.521 14.8454 165.882 14.6254C166.297 14.3505 166.492 13.9381 167.101 13.9381C167.517 13.9381 168.404 14.378 169.818 15.2302C170.012 15.3402 170.095 15.5326 170.067 15.7526L169.291 23.945C167.406 30.2955 166.27 33.9794 165.909 34.9416L179.548 11.2715C179.548 11.244 179.576 11.244 179.576 11.2165C179.687 11.1065 179.853 11.1065 179.964 11.189L183.235 14.1031C183.484 14.323 183.623 14.6804 183.595 15.0103L183.429 16.8247C176.027 30.6804 172.202 37.8007 171.925 38.1581C171.842 38.268 171.675 38.6529 171.897 38.6254C172.202 38.5979 179.409 38.4605 179.742 38.488C180.186 37.8007 185.12 28.5636 194.6 10.8041C194.6 10.8041 194.6 10.8041 194.6 10.7766C194.684 10.6392 194.85 10.6117 194.989 10.6942L198.897 13.1134C199.036 13.1959 199.119 13.3333 199.147 13.4708L199.673 15.9725C191.579 30.4605 187.421 37.9107 187.144 38.323C187.282 38.433 187.282 38.543 187.338 38.6529Z" fill="#FF5345"/>
</g>
<defs>
<filter id="filter0_d_339_7079" x="0" y="0" width="230" height="76" filterUnits="userSpaceOnUse" color-interpolation-filters="sRGB">
<feFlood flood-opacity="0" result="BackgroundImageFix"/>
<feColorMatrix in="SourceAlpha" type="matrix" values="0 0 0 0 0 0 0 0 0 0 0 0 0 0 0 0 0 0 127 0" result="hardAlpha"/>
<feOffset dy="4"/>
<feComposite in2="hardAlpha" operator="out"/>
<feColorMatrix type="matrix" values="0 0 0 0 0 0 0 0 0 0 0 0 0 0 0 0 0 0 0.25 0"/>
<feBlend mode="normal" in2="BackgroundImageFix" result="effect1_dropShadow_339_7079"/>
<feBlend mode="normal" in="SourceGraphic" in2="effect1_dropShadow_339_7079" result="shape"/>
</filter>
</defs>
</svg>
