<svg width="93" height="64" viewBox="0 0 93 64" fill="none"
    xmlns="http://www.w3.org/2000/svg">
    <path d="M46.7994 0H47.3167C52.0949 0.0170834 76.3055 0.187918 82.8333 1.90764C84.8067 2.43249 86.605 3.45552 88.0484 4.8745C89.4917 6.29348 90.5297 8.0587 91.0585 9.99377C91.6456 12.1577 92.0583 15.022 92.3373 17.9774L92.3955 18.5696L92.5233 20.0502L92.5698 20.6424C92.9477 25.8471 92.9942 30.7216 93 31.7865V32.2135C92.9942 33.3183 92.9419 38.523 92.5233 43.9441L92.4768 44.542L92.4245 45.1343C92.1339 48.3915 91.7037 51.6259 91.0585 54.0062C90.5313 55.9421 89.4939 57.7081 88.0503 59.1274C86.6066 60.5466 84.8075 61.5691 82.8333 62.0924C76.0904 63.869 50.4615 63.9943 46.9098 64H46.0844C44.2882 64 36.8594 63.9658 29.0701 63.7039L28.0819 63.6697L27.5762 63.6469L25.5882 63.5672C19.1359 63.2882 12.9917 62.8383 10.1609 62.0867C8.18736 61.5639 6.38872 60.5422 4.94514 59.1241C3.50157 57.7059 2.46376 55.941 1.93568 54.0062C1.29046 51.6316 0.860304 48.3915 0.569661 45.1343L0.476655 43.9441C0.189776 40.0856 0.0308074 36.2189 0 32.3502V31.6498C0.0116257 30.4255 0.0581286 26.1945 0.372023 21.525L0.412713 20.9385L0.430152 20.6424L0.476655 20.0502L0.604538 18.5696L0.662666 17.9774C0.941684 15.022 1.3544 12.152 1.9415 9.99377C2.46869 8.05793 3.5061 6.29187 4.94973 4.87265C6.39336 3.45343 8.19247 2.43092 10.1667 1.90764C12.9976 1.16736 19.1418 0.711807 25.594 0.427084L26.5822 0.387223L28.0819 0.335974L29.0759 0.296113C34.6081 0.121717 40.1425 0.0249011 45.6775 0.00569472H46.7994V0ZM37.2023 18.2792V45.7151L61.3664 32.0028L37.2023 18.2792Z" fill="#EBECF3"/>
</svg>
